<?xml version="1.0" encoding="UTF-8" standalone="no"?><!DOCTYPE svg PUBLIC "-//W3C//DTD SVG 1.1//EN" "http://www.w3.org/Graphics/SVG/1.1/DTD/svg11.dtd"><svg width="100%" height="100%" viewBox="0 0 400 400" version="1.1" xmlns="http://www.w3.org/2000/svg" xmlns:xlink="http://www.w3.org/1999/xlink" xml:space="preserve" xmlns:serif="http://www.serif.com/" style="fill-rule:evenodd;clip-rule:evenodd;stroke-linejoin:round;stroke-miterlimit:2;"><g id="Layer1"><rect x="159.959" y="55.319" width="178.98" height="178.447" style="fill:#698471;fill-opacity:0.78;"/><rect x="160.51" y="62.434" width="178.98" height="178.447" style="fill:#49574d;fill-opacity:0.78;"/></g><g id="Layer2"><rect x="0" y="0" width="100" height="100" style="fill:#682500;"/><rect x="0" y="0" width="100" height="100" style="fill:#682500;"/><rect x="36.025" y="25.029" width="27.95" height="74.971" style="fill:#7a4040;"/><rect x="341.38" y="100" width="58.62" height="100" style="fill:#682500;"/><rect x="341.38" y="100" width="58.62" height="100" style="fill:#682500;"/><rect x="336.111" y="100" width="38.86" height="100" style="fill:#8c8c8c;"/><rect x="341.38" y="100" width="58.62" height="100" style="fill:#682500;"/><rect x="341.38" y="100" width="58.62" height="100" style="fill:#682500;"/><path d="M200,0l-0,63.975l100,-0l-0,-63.975l-100,0Z" style="fill:#682500;"/><path d="M200,0l-0,63.975l100,-0l-0,-63.975l-100,0Z" style="fill:#682500;"/><rect x="236.025" y="100" width="27.95" height="100" style="fill:#8c8c8c;"/><path d="M200,136.025l-0,27.95l100,-0l-0,-27.95l-100,0Z" style="fill:#8c8c8c;"/><path d="M300,300l0,-58.62l-100,0l0,58.62l100,0Z" style="fill:#682500;"/><path d="M300,300l0,-58.62l-100,0l0,58.62l100,0Z" style="fill:#682500;"/><rect x="0" y="200" width="100" height="100" style="fill:#682500;"/><rect x="0" y="200" width="100" height="100" style="fill:#682500;"/><rect x="36.025" y="200" width="27.95" height="74.971" style="fill:#7a4040;"/><rect x="0" y="300" width="100" height="100" style="fill:#682500;"/><rect x="0" y="300" width="100" height="100" style="fill:#682500;"/><rect x="32.36" y="331.525" width="35.281" height="36.95" style="fill:#7a4040;"/><rect x="0" y="100" width="100" height="100" style="fill:#682500;"/><rect x="0" y="100" width="100" height="100" style="fill:#682500;"/><rect x="36.025" y="100" width="27.95" height="100" style="fill:#7a4040;"/><path d="M400,400l0,-100l-100,0l0,100l100,0Z" style="fill:#682500;"/><path d="M400,400l0,-100l-100,0l0,100l100,0Z" style="fill:#682500;"/><path d="M300,400l0,-100l-100,0l0,100l100,0Z" style="fill:#682500;"/><path d="M300,400l0,-100l-100,0l0,100l100,0Z" style="fill:#682500;"/><path d="M100,400l0,-100l100,0l0,100l-100,0Z" style="fill:#682500;"/><path d="M100,400l0,-100l100,0l0,100l-100,0Z" style="fill:#682500;"/><path d="M125.029,336.025l249.942,0l0,27.95l-249.942,-0l-0,-27.95Z" style="fill:#7a4040;"/><path d="M150,100l0,-36.025l50,-0l-0,36.025l0,-100l-100,0l0,100l50,0Z" style="fill:#682500;"/><path d="M150,100l0,-36.025l50,-0l-0,36.025l0,-100l-100,0l0,100l50,0Z" style="fill:#682500;"/><path d="M350,100l-0,-36.025l-50,-0l-0,36.025l-0,-100l100,-0l-0,100l-50,-0Z" style="fill:#682500;"/><path d="M350,100l-0,-36.025l-50,-0l-0,36.025l-0,-100l100,0l-0,100l-50,0Z" style="fill:#682500;"/><path d="M350,200l0,36.025l-50,0l0,-36.025l0,100l100,0l0,-100l-50,0Z" style="fill:#682500;"/><path d="M350,200l0,36.025l-50,0l0,-36.025l0,100l100,0l0,-100l-50,0Z" style="fill:#682500;"/><path d="M150,200l0,36.025l50,0l-0,-36.025l0,100l-100,0l0,-100l50,0Z" style="fill:#682500;"/><rect x="100" y="100" width="58.62" height="100" style="fill:#682500;"/><path d="M300,36.025l74.971,0l0,163.975l-38.86,0l0,-36.025l-72.136,-0l-0,68.735l72.136,0l0,-32.71l38.86,0l0,67.29l-249.942,-0l-0,-167.29l37.256,0l0,36.025l73.74,0l0,-72.05l-73.74,-0l0,36.025l-37.256,0l-0,-63.975l174.971,0l-0,27.95l-36.025,-0l-0,72.05l72.136,0l0,-72.05l-36.111,-0l-0,-27.95Zm-137.715,196.685l0,-68.735l73.74,-0l0,68.735l-73.74,0Z" style="fill:#7a4040;"/></g></svg>