<?xml version="1.0" encoding="UTF-8" standalone="no"?><!DOCTYPE svg PUBLIC "-//W3C//DTD SVG 1.1//EN" "http://www.w3.org/Graphics/SVG/1.1/DTD/svg11.dtd"><svg width="100%" height="100%" viewBox="0 0 128 128" version="1.1" xmlns="http://www.w3.org/2000/svg" xmlns:xlink="http://www.w3.org/1999/xlink" xml:space="preserve" xmlns:serif="http://www.serif.com/" style="fill-rule:evenodd;clip-rule:evenodd;stroke-linecap:round;stroke-linejoin:round;stroke-miterlimit:1.5;"><rect id="Frame2" x="0" y="0" width="128" height="128" style="fill:none;"/><g id="Frame21" serif:id="Frame2"><path d="M60,3c20.145,0 36.5,16.803 36.5,37.5c0,20.697 -17.355,64.5 -37.5,64.5c-20.145,0 -35.5,-43.803 -35.5,-64.5c0,-20.697 16.355,-37.5 36.5,-37.5Z" style="fill:#ebebeb;stroke:#000;stroke-width:4.17px;"/><path d="M55,58l2,6l-4,0l2,-6Z" style="stroke:#000;stroke-width:4.17px;"/><path d="M65,58l2,6l-4,0l2,-6Z" style="stroke:#000;stroke-width:4.17px;"/><path d="M86,77l-53,0l5,14l44,0l4,-14Z" style="stroke:#000;stroke-width:4.17px;"/><g><g><path d="M40.75,77.923l-4.75,0l0.448,3.077l3.944,0l0.358,-3.077Z" style="fill:#fff;"/><path d="M45.5,77.923l-4.75,0l0.448,3.077l3.944,0l0.358,-3.077Z" style="fill:#fff;"/><path d="M50.25,77.923l-4.75,0l0.448,3.077l3.944,0l0.358,-3.077Z" style="fill:#fff;"/><path d="M55,77.923l-4.75,0l0.448,3.077l3.944,0l0.358,-3.077Z" style="fill:#fff;"/><path d="M59.75,77.923l-4.75,0l0.448,3.077l3.944,0l0.358,-3.077Z" style="fill:#fff;"/><path d="M64.75,77.923l-4.75,0l0.448,3.077l3.944,0l0.358,-3.077Z" style="fill:#fff;"/><path d="M69.75,77.923l-4.75,0l0.448,3.077l3.944,0l0.358,-3.077Z" style="fill:#fff;"/><path d="M74.625,77.923l-4.75,0l0.448,3.077l3.944,0l0.358,-3.077Z" style="fill:#fff;"/><path d="M79.75,77.923l-4.75,0l0.448,3.077l3.944,0l0.358,-3.077Z" style="fill:#fff;"/><path d="M40.75,77.923l-4.75,0l0.448,3.077l3.944,0l0.358,-3.077Z" style="fill:#fff;"/><path d="M84.25,77.923l-4.75,0l0.448,3.077l3.944,0l0.358,-3.077Z" style="fill:#fff;"/></g><g><path d="M42.25,83l-4.75,0l0.448,3.077l3.944,-0l0.358,-3.077Z" style="fill:#fff;"/><path d="M47.5,83l-4.75,0l0.448,3.077l3.944,-0l0.358,-3.077Z" style="fill:#fff;"/><path d="M52.75,83l-4.75,0l0.448,3.077l3.944,-0l0.358,-3.077Z" style="fill:#fff;"/><path d="M58,83l-4.75,0l0.448,3.077l3.944,-0l0.358,-3.077Z" style="fill:#fff;"/><path d="M63.375,83l-4.75,0l0.448,3.077l3.944,-0l0.358,-3.077Z" style="fill:#fff;"/><path d="M68.75,83l-4.75,0l0.448,3.077l3.944,-0l0.358,-3.077Z" style="fill:#fff;"/><path d="M74.375,83l-4.75,0l0.448,3.077l3.944,-0l0.358,-3.077Z" style="fill:#fff;"/><path d="M80,83l-4.75,0l0.448,3.077l3.944,-0l0.358,-3.077Z" style="fill:#fff;"/><path d="M84.25,83l-4.75,0l0.448,3.077l3.944,-0l0.358,-3.077Z" style="fill:#fff;"/></g></g><ellipse cx="41.5" cy="42.5" rx="10.5" ry="11.5" style="stroke:#000;stroke-width:4.17px;"/><circle cx="77.5" cy="43.5" r="10.5" style="stroke:#000;stroke-width:4.17px;"/></g></svg>