<?xml version="1.0" encoding="UTF-8" standalone="no"?><!DOCTYPE svg PUBLIC "-//W3C//DTD SVG 1.1//EN" "http://www.w3.org/Graphics/SVG/1.1/DTD/svg11.dtd"><svg width="100%" height="100%" viewBox="0 0 800 800" version="1.1" xmlns="http://www.w3.org/2000/svg" xmlns:xlink="http://www.w3.org/1999/xlink" xml:space="preserve" xmlns:serif="http://www.serif.com/" style="fill-rule:evenodd;clip-rule:evenodd;stroke-linecap:round;stroke-linejoin:round;stroke-miterlimit:1.5;"><path d="M132.689,360c-1.913,6.745 -19.954,26.054 -21.842,30.718l6.839,29.494c-2.204,5.445 -8.156,8.181 -13.282,6.106l8.918,3.61c6.767,2.739 14.005,0.652 16.155,-4.657l-12.234,-31.014c2.149,-5.309 29.894,-28.408 23.127,-31.147l-7.681,-3.11Z" style="fill:#595959;stroke:#000;stroke-width:4.17px;"/><path d="M271.969,401.749c4.231,-8.7 44.275,-48.995 37.194,-52.439l-25.662,-12.478c-7.081,-3.444 -16.265,0.824 -20.496,9.525l-37.914,77.968c-4.231,8.701 -1.917,18.56 5.165,22.004l25.661,12.478c7.082,3.444 16.266,-0.824 20.497,-9.525l-4.445,-47.533Z" style="fill:#2f0505;stroke:#000;stroke-width:4.17px;"/><path d="M262.631,405c5.76,-8.574 57.792,-42.754 49.218,-48.514l-31.071,-20.877c-8.574,-5.761 -20.212,-3.477 -25.973,5.097l-51.625,76.835c-5.761,8.574 -3.477,20.213 5.097,25.973l31.07,20.877c8.574,5.761 20.212,3.477 25.973,-5.097l-2.689,-54.294Z" style="fill:#720000;stroke:#000;stroke-width:4.17px;"/><path d="M243.074,414.888c1.502,-4.939 19.438,-29.461 15.33,-30.71l-14.888,-4.526c-4.108,-1.249 -8.662,1.747 -10.164,6.686l-13.455,44.259c-1.501,4.939 0.615,9.963 4.724,11.212l14.887,4.526c4.109,1.249 8.663,-1.747 10.165,-6.686l-6.599,-24.761Z" style="fill:#230b0b;"/><path d="M405,661.499c0,-19.961 -16.206,-36.167 -36.167,-36.167l-237.666,0c-19.961,0 -36.167,16.206 -36.167,36.167l0,72.334c0,19.961 16.206,36.167 36.167,36.167l237.666,-0c19.961,-0 36.167,-16.206 36.167,-36.167l0,-72.334Z" style="fill:#009eff;fill-opacity:0.32;stroke:#000;stroke-width:4.17px;"/><path d="M390,707.666c0,-11.038 -8.962,-20 -20,-20l-240,0c-11.038,0 -20,8.962 -20,20l-0,40c-0,11.038 8.962,20 20,20l240,0c11.038,0 20,-8.962 20,-20l0,-40Z" style="fill:#009eff;"/><path d="M590.232,611.853c2.423,-0.014 4.379,-1.992 4.365,-4.415l-0.049,-8.78c-0.014,-2.422 -1.992,-4.378 -4.415,-4.365l-100.576,0.565c-2.423,0.014 -4.379,1.992 -4.365,4.415l0.049,8.78c0.014,2.422 1.992,4.378 4.415,4.365l100.576,-0.565Z" style="fill:#080808;stroke:#000;stroke-width:4.17px;"/><path d="M575.442,699.606c13.763,-0.078 24.874,-11.314 24.797,-25.077l-0.281,-49.874c-0.077,-13.762 -11.314,-24.873 -25.077,-24.796l-70.084,0.394c-13.763,0.077 -24.874,11.314 -24.797,25.077l0.281,49.873c0.077,13.763 11.314,24.874 25.077,24.797l70.084,-0.394Z" style="fill:#434343;stroke:#000;stroke-width:4.17px;"/><path d="M561.384,694.669c10.333,-0.058 18.674,-8.494 18.616,-18.826l-0.211,-37.44c-0.058,-10.333 -8.493,-18.674 -18.825,-18.616l-42.559,0.239c-10.333,0.059 -18.674,8.494 -18.616,18.826l0.211,37.441c0.058,10.332 8.493,18.673 18.825,18.615l42.559,-0.239Z" style="fill:#6b6a6a;stroke:#000;stroke-width:4.17px;"/><path d="M552.375,697.137c6.913,-0.039 12.494,-5.684 12.456,-12.597l-0.253,-44.877c-0.038,-6.914 -5.683,-12.495 -12.596,-12.456l-25.053,0.14c-6.913,0.039 -12.494,5.684 -12.455,12.597l0.252,44.877c0.039,6.914 5.683,12.495 12.596,12.456l25.053,-0.14Z" style="fill:#313131;stroke:#000;stroke-width:4.17px;"/><path d="M646.918,588.826c-0.061,5.305 4.411,9.655 9.981,9.707l56.219,0.521c5.57,0.052 26.814,-14.346 26.876,-19.652l0.006,0.48c0.061,-5.306 -20.867,-19.23 -26.437,-19.282l-56.219,-0.522c-5.57,-0.051 -10.142,4.214 -10.203,9.52l-0.223,19.228Z" style="fill:#fdbf00;stroke:#000;stroke-width:4.17px;"/><path d="M729.999,471.283c0.077,-5.305 -4.382,-9.668 -9.952,-9.737l-56.217,-0.689c-5.57,-0.068 -6.972,15.62 -7.049,20.925c-0.077,5.306 0.92,17.46 6.49,17.528l56.217,0.689c5.57,0.068 10.154,-4.184 10.231,-9.489l0.28,-19.227Z" style="fill:#fdbf00;stroke:#000;stroke-width:4.17px;"/><path d="M663.575,460.819c4.948,0.337 8.37,9.36 7.636,20.137c-0.733,10.776 -5.346,19.252 -10.293,18.916c-4.948,-0.337 -8.37,-9.36 -7.637,-20.137c0.734,-10.776 5.346,-19.253 10.294,-18.916Z" style="fill:#4c3900;stroke:#000;stroke-width:4.17px;"/><path d="M646.959,595.983c-0.016,1.418 1.121,2.58 2.539,2.593l5.139,0.048c1.418,0.013 2.582,-1.128 2.599,-2.545l0.386,-33.438c0.017,-1.418 -1.121,-2.58 -2.539,-2.593l-5.138,-0.048c-1.418,-0.013 -2.583,1.127 -2.599,2.545l-0.387,33.438Z" style="fill:#010101;stroke:#000;stroke-width:4.17px;"/><path d="M526.723,309.703l-67.347,-0.441l-0.159,32.5c-0.048,9.658 -6.517,17.457 -14.437,17.405l-194.768,-1.276l-0.012,2.5c-0.047,9.659 6.345,17.542 14.266,17.594l291.126,1.907c7.92,0.052 14.389,-7.747 14.437,-17.406l0.171,-34.999c0.029,-5.995 -2.423,-11.306 -6.181,-14.485l-0.369,-10.345c-0.103,-2.891 -2.568,-5.125 -5.501,-4.985l-12.047,9.69c-2.933,0.14 -19.47,-5.835 -19.367,-2.944l0.188,5.285Z" style="fill:#595959;stroke:#000;stroke-width:4.17px;"/><path d="M520.133,318.783l-63.756,-0.322l-0.151,23.715c-0.044,7.048 -6.168,12.739 -13.666,12.701l-184.38,-0.931l-0.011,1.824c-0.045,7.048 6.006,12.8 13.505,12.838l275.598,1.392c7.498,0.038 13.622,-5.653 13.667,-12.701l0.162,-25.539c0.028,-4.374 -2.293,-8.25 -5.851,-10.57l-0.349,-7.548c-0.098,-2.11 -2.431,-3.74 -5.208,-3.637l-11.404,7.07c-2.777,0.102 -18.432,-4.258 -18.335,-2.148l0.179,3.856Z" style="fill:#333;"/><path d="M526.534,312.5c0,-6.899 -5.601,-12.5 -12.5,-12.5l-242.892,0c-6.899,0 -12.5,5.601 -12.5,12.5l-0,25c-0,6.899 5.601,12.5 12.5,12.5l242.892,0c6.899,0 12.5,-5.601 12.5,-12.5l0,-25Z" style="fill:#595959;stroke:#000;stroke-width:4.17px;"/><path d="M436.986,342.549c7.25,-0.04 13.104,-5.96 13.063,-13.211l-0.147,-26.274c-0.041,-7.251 -5.961,-13.105 -13.212,-13.064l-153.626,0.863c-7.251,0.041 -13.105,5.961 -13.064,13.212l0.148,26.274c0.041,7.251 5.96,13.105 13.211,13.064l153.627,-0.864Z" style="fill:#080808;stroke:#000;stroke-width:4.17px;"/><path d="M280,642.832c0,-9.658 -7.841,-17.5 -17.5,-17.5l-35,0c-9.659,0 -17.5,7.842 -17.5,17.5l-0,109.668c-0,9.659 7.841,17.5 17.5,17.5l35,-0c9.659,-0 17.5,-7.841 17.5,-17.5l0,-109.668Z" style="fill:#595959;stroke:#000;stroke-width:4.17px;"/><path d="M569.743,342.112c-0,-4.354 -3.535,-7.889 -7.889,-7.889l-303.966,0c-4.353,0 -7.888,3.535 -7.888,7.889l0,15.776c0,4.354 3.535,7.889 7.888,7.889l303.966,-0c4.354,-0 7.889,-3.535 7.889,-7.889l-0,-15.776Z" style="fill:#423a3a;stroke:#000;stroke-width:4.17px;"/><path d="M103.967,156.564l0.162,-18.4c0.055,-6.22 5.384,-11.222 11.894,-11.163l23.589,0.212c6.51,0.059 11.75,5.156 11.696,11.376l-0.18,20.361l94.308,1.048c11.403,0.127 21.013,-7.515 23.316,-17.774l-6.604,-0.073c-6.509,-0.073 -11.738,-5.181 -11.669,-11.401l0.251,-22.54c0.069,-6.219 5.41,-11.21 11.92,-11.138l7.076,0.079l0.05,-4.508c0.139,-12.44 -10.319,-22.657 -23.338,-22.802l-132.096,-1.469c-13.019,-0.145 -23.701,9.837 -23.839,22.277l-0.502,45.079c-0.103,9.25 5.653,17.271 13.966,20.836Z" style="fill:#720000;stroke:#000;stroke-width:4.17px;"/><path d="M244.965,132.07c0.001,-1.017 -0.823,-1.845 -1.84,-1.847l-66.244,-0.119c-1.018,-0.002 -1.845,0.822 -1.847,1.84l-0.007,3.686c-0.002,1.018 0.823,1.845 1.84,1.847l66.244,0.12c1.018,0.002 1.845,-0.823 1.847,-1.84l0.007,-3.687Z" style="fill:#3857e7;stroke:#000;stroke-width:4.17px;"/><path d="M113.308,100.507l-0.004,-5.568c-0.001,-1.882 4.364,-3.364 9.743,-3.309l19.49,0.202c5.378,0.055 9.746,1.629 9.748,3.511l0.005,6.16l77.922,0.867c9.422,0.105 17.305,-2.152 19.13,-5.243l-5.456,-0.061c-5.379,-0.06 -9.737,-1.636 -9.727,-3.518l0.038,-6.82c0.011,-1.882 4.386,-3.361 9.764,-3.301l5.848,0.065l0.007,-1.364c0.021,-3.764 -8.695,-6.917 -19.452,-7.036l-109.146,-1.214c-10.757,-0.12 -19.508,2.839 -19.529,6.603l-0.075,13.639c-0.016,2.798 4.8,5.259 11.694,6.387Z" style="fill:#350505;fill-opacity:0.75;"/><path d="M569.743,336.321c-0,-1.421 -1.154,-2.574 -2.574,-2.574l-5.149,-0c-1.421,-0 -2.575,1.153 -2.575,2.574l0,26.405c0,1.421 1.154,2.575 2.575,2.575l5.149,-0c1.42,-0 2.574,-1.154 2.574,-2.575l-0,-26.405Z" style="stroke:#000;stroke-width:4.17px;"/><path d="M320.249,640.934c47.357,15.187 79.647,46.718 72.063,70.368c-7.584,23.649 -29.21,-25.12 -76.567,-40.307c-47.356,-15.187 -102.627,8.923 -95.042,-14.727c7.584,-23.65 52.189,-30.521 99.546,-15.334Z" style="fill:#f2f2f2;"/><path d="M698.696,567.26c8.536,-2.582 16.911,-0.326 18.691,5.035c1.781,5.361 -7.165,-1.395 -15.701,1.186c-8.536,2.582 -13.45,13.53 -15.23,8.17c-1.781,-5.361 3.704,-11.809 12.24,-14.391Z" style="fill:#f2f2f2;"/><path d="M708.836,474.177c6.024,3.679 9.046,9.92 6.745,13.927c-2.302,4.008 -2.909,-5.045 -8.933,-8.724c-6.024,-3.679 -15.199,-0.599 -12.897,-4.607c2.301,-4.007 9.061,-4.274 15.085,-0.596Z" style="fill:#f2f2f2;"/><path d="M636.459,100l70.553,18.848l82.988,11.152l-82.988,11.152l-70.553,18.848l-70.553,-18.848l-82.988,-11.152l82.988,-11.152l70.553,-18.848Z" style="fill:#dd3b0a;fill-opacity:0.91;"/><path d="M620.643,112.431l41.156,11.038l48.41,6.531l-48.41,6.531l-41.156,11.038l-41.156,-11.038l-48.409,-6.531l48.409,-6.531l41.156,-11.038Z" style="fill:#ffe877;fill-opacity:0.91;"/></svg>