<?xml version="1.0" encoding="UTF-8" standalone="no"?><!DOCTYPE svg PUBLIC "-//W3C//DTD SVG 1.1//EN" "http://www.w3.org/Graphics/SVG/1.1/DTD/svg11.dtd"><svg width="100%" height="100%" viewBox="0 0 100 146" version="1.1" xmlns="http://www.w3.org/2000/svg" xmlns:xlink="http://www.w3.org/1999/xlink" xml:space="preserve" xmlns:serif="http://www.serif.com/" style="fill-rule:evenodd;clip-rule:evenodd;stroke-linejoin:round;stroke-miterlimit:2;"><path d="M93.735,22.407c0,-12.367 -10.04,-22.407 -22.407,-22.407l-44.815,-0c-12.367,-0 -22.408,10.04 -22.408,22.407l0,100.363c0,12.367 10.041,22.408 22.408,22.408l44.815,-0c12.367,-0 22.407,-10.041 22.407,-22.408l0,-100.363Z" style="fill:#8000ff;"/><path d="M19.58,15.562c28.614,-16.521 31.388,5.167 10.762,28.456c-15.316,17.293 -21.236,7.875 -25.295,0.844c-4.06,-7.032 -14.082,-12.78 14.533,-29.3Z" style="fill:#8000ff;"/><path d="M80.359,17.645c-28.615,-16.521 -31.389,5.168 -10.763,28.456c15.316,17.293 21.236,7.875 25.296,0.844c4.059,-7.031 14.082,-12.779 -14.533,-29.3Z" style="fill:#8000ff;"/></svg>