<?xml version="1.0" encoding="UTF-8" standalone="no"?><!DOCTYPE svg PUBLIC "-//W3C//DTD SVG 1.1//EN" "http://www.w3.org/Graphics/SVG/1.1/DTD/svg11.dtd"><svg width="100%" height="100%" viewBox="0 0 800 800" version="1.1" xmlns="http://www.w3.org/2000/svg" xmlns:xlink="http://www.w3.org/1999/xlink" xml:space="preserve" xmlns:serif="http://www.serif.com/" style="fill-rule:evenodd;clip-rule:evenodd;stroke-linecap:round;stroke-linejoin:round;stroke-miterlimit:1.5;"><path d="M179.93,166.801l-1.757,10.198l8.895,-0c9.371,-5.921 15.966,-13.258 16.675,-23.222c2.477,-34.828 19.894,-67.598 37.157,-92.094l-8.186,5.016l5.687,-14.759l-12.044,-1.742l8.529,-7.379l-14.886,-9.122l18.401,0l-1.758,-10.198l10.958,4.561l5.686,-14.759l5.686,14.759l10.957,-4.561l-0.611,3.55c4.919,-5.169 8.011,-8.014 8.011,-8.014c0,-0 29.754,24.442 52.124,60.304l4.86,2.022l5.686,-14.758l5.686,14.758l10.957,-4.56l-1.757,10.198l18.401,-0l-14.886,9.121l8.529,7.379l-12.044,1.742l5.686,14.759l-14.886,-9.121l-0.223,0.357c5.084,13.49 8.28,27.824 8.28,42.541c-0,12.358 -0.991,24.316 -2.84,35.639c11.907,-1.075 43.091,49.619 56.427,49.619c21.172,-0 21.786,-50.755 39.27,-49.518c-1.861,-11.354 -2.857,-23.346 -2.857,-35.74c-0,-16.617 4.456,-31.679 11.31,-45.014l-0.739,-1.186l-14.886,9.122l5.686,-14.759l-12.044,-1.742l8.529,-7.379l-14.886,-9.122l18.401,0l-1.757,-10.198l10.957,4.561l5.686,-14.759l5.686,14.759l10.957,-4.561l-1.04,6.042c23.618,-26.123 51.727,-40.506 51.727,-40.506c0,-0 66.413,42.772 66.413,114.742c-0,9.778 3.515,17.187 9.391,23.222l1.98,-0l-1.757,-10.198l10.957,4.56l5.686,-14.758l5.686,14.758l10.957,-4.56l-1.757,10.198l18.401,-0l-14.886,9.121l8.529,7.379l-12.044,1.742l0.123,0.318c10.259,4.238 21.445,8.377 32.321,13.476c9.096,9.627 6.268,25.855 -0.894,45.67l-1.55,8.992l18.401,0l-14.886,9.122l8.529,7.379l-12.044,1.742l5.686,14.759l-14.886,-9.122l-5.686,9.122l-0.473,-0.758c-7.247,17.468 -14.222,35.894 -17.659,53.976l0.531,1.378l10.958,-4.561l-1.758,10.198l18.401,0l-14.886,9.122l8.529,7.379l-12.044,1.742l5.687,14.759l-14.887,-9.122l-1.949,3.126c3.246,28.215 5.536,53.502 6.731,76.169l1.792,4.652l10.957,-4.561l-1.757,10.198l18.401,-0l-14.886,9.121l8.529,7.38l-12.044,1.742l5.686,14.758l-14.886,-9.121l-0.837,1.344c-0.094,27.001 -2.361,49.441 -7.146,68.077l15.584,0l-14.886,9.122l8.529,7.379l-12.044,1.742l5.686,14.759l-12.156,-7.449c-10.795,21.741 -27.274,36.295 -50.503,45.991l5.73,4.957l-12.044,1.742l5.686,14.759l-14.886,-9.122l-5.686,9.122l-5.686,-9.122l-14.886,9.122l4.123,-10.703c-30.791,5.796 -69.311,7.599 -116.73,7.963l3.396,2.938l-12.044,1.742l5.686,14.758l-14.886,-9.121l-5.686,9.121l-5.686,-9.121l-14.887,9.121l5.687,-14.758l-12.044,-1.742l3.375,-2.92c-33.168,-0.214 -62.329,-1.095 -87.67,-4.138l5.224,13.558l-14.887,-9.121l-5.686,9.121l-5.686,-9.121l-14.886,9.121l5.686,-14.758l-12.044,-1.742l4.693,-4.06c-40.033,-10.877 -67.075,-32.195 -82.49,-73.833l-12.558,7.695l5.686,-14.759l-12.044,-1.742l8.529,-7.379l-14.886,-9.122l17.891,0c-3.98,-17.664 -6.513,-38.148 -7.661,-61.901l-2.629,-4.219l-14.886,9.122l5.686,-14.759l-12.044,-1.742l8.529,-7.379l-14.886,-9.122l18.401,0l-1.757,-10.198l10.957,4.561l1.945,-5.048c0.171,-19.063 1.006,-39.822 2.484,-62.45c0.36,-5.518 0.115,-11.148 -0.604,-16.849l-3.825,-6.136l-14.886,9.122l5.686,-14.759l-12.044,-1.742l8.529,-7.379l-14.886,-9.122l18.401,0l-1.757,-10.198l4.514,1.879c-3.95,-10.587 -8.515,-21.121 -12.911,-31.364l-1.673,2.685l-5.686,-9.122l-14.887,9.122l5.687,-14.759l-12.044,-1.742l8.529,-7.379l-14.886,-9.122l18.401,0l-1.758,-10.198l3.441,1.432c-5.222,-18.708 -5.15,-34.727 7.246,-45.896c6.245,-5.627 16.611,-9.972 28.04,-14.232l-9.013,-1.304l8.529,-7.379l-14.886,-9.121l18.401,-0l-1.758,-10.198l10.958,4.56l5.686,-14.758l5.686,14.758l10.957,-4.56Z" style="fill:#600c0f;"/><clipPath id="_clip1"><path d="M179.93,166.801l-1.757,10.198l8.895,-0c9.371,-5.921 15.966,-13.258 16.675,-23.222c2.477,-34.828 19.894,-67.598 37.157,-92.094l-8.186,5.016l5.687,-14.759l-12.044,-1.742l8.529,-7.379l-14.886,-9.122l18.401,0l-1.758,-10.198l10.958,4.561l5.686,-14.759l5.686,14.759l10.957,-4.561l-0.611,3.55c4.919,-5.169 8.011,-8.014 8.011,-8.014c0,-0 29.754,24.442 52.124,60.304l4.86,2.022l5.686,-14.758l5.686,14.758l10.957,-4.56l-1.757,10.198l18.401,-0l-14.886,9.121l8.529,7.379l-12.044,1.742l5.686,14.759l-14.886,-9.121l-0.223,0.357c5.084,13.49 8.28,27.824 8.28,42.541c-0,12.358 -0.991,24.316 -2.84,35.639c11.907,-1.075 43.091,49.619 56.427,49.619c21.172,-0 21.786,-50.755 39.27,-49.518c-1.861,-11.354 -2.857,-23.346 -2.857,-35.74c-0,-16.617 4.456,-31.679 11.31,-45.014l-0.739,-1.186l-14.886,9.122l5.686,-14.759l-12.044,-1.742l8.529,-7.379l-14.886,-9.122l18.401,0l-1.757,-10.198l10.957,4.561l5.686,-14.759l5.686,14.759l10.957,-4.561l-1.04,6.042c23.618,-26.123 51.727,-40.506 51.727,-40.506c0,-0 66.413,42.772 66.413,114.742c-0,9.778 3.515,17.187 9.391,23.222l1.98,-0l-1.757,-10.198l10.957,4.56l5.686,-14.758l5.686,14.758l10.957,-4.56l-1.757,10.198l18.401,-0l-14.886,9.121l8.529,7.379l-12.044,1.742l0.123,0.318c10.259,4.238 21.445,8.377 32.321,13.476c9.096,9.627 6.268,25.855 -0.894,45.67l-1.55,8.992l18.401,0l-14.886,9.122l8.529,7.379l-12.044,1.742l5.686,14.759l-14.886,-9.122l-5.686,9.122l-0.473,-0.758c-7.247,17.468 -14.222,35.894 -17.659,53.976l0.531,1.378l10.958,-4.561l-1.758,10.198l18.401,0l-14.886,9.122l8.529,7.379l-12.044,1.742l5.687,14.759l-14.887,-9.122l-1.949,3.126c3.246,28.215 5.536,53.502 6.731,76.169l1.792,4.652l10.957,-4.561l-1.757,10.198l18.401,-0l-14.886,9.121l8.529,7.38l-12.044,1.742l5.686,14.758l-14.886,-9.121l-0.837,1.344c-0.094,27.001 -2.361,49.441 -7.146,68.077l15.584,0l-14.886,9.122l8.529,7.379l-12.044,1.742l5.686,14.759l-12.156,-7.449c-10.795,21.741 -27.274,36.295 -50.503,45.991l5.73,4.957l-12.044,1.742l5.686,14.759l-14.886,-9.122l-5.686,9.122l-5.686,-9.122l-14.886,9.122l4.123,-10.703c-30.791,5.796 -69.311,7.599 -116.73,7.963l3.396,2.938l-12.044,1.742l5.686,14.758l-14.886,-9.121l-5.686,9.121l-5.686,-9.121l-14.887,9.121l5.687,-14.758l-12.044,-1.742l3.375,-2.92c-33.168,-0.214 -62.329,-1.095 -87.67,-4.138l5.224,13.558l-14.887,-9.121l-5.686,9.121l-5.686,-9.121l-14.886,9.121l5.686,-14.758l-12.044,-1.742l4.693,-4.06c-40.033,-10.877 -67.075,-32.195 -82.49,-73.833l-12.558,7.695l5.686,-14.759l-12.044,-1.742l8.529,-7.379l-14.886,-9.122l17.891,0c-3.98,-17.664 -6.513,-38.148 -7.661,-61.901l-2.629,-4.219l-14.886,9.122l5.686,-14.759l-12.044,-1.742l8.529,-7.379l-14.886,-9.122l18.401,0l-1.757,-10.198l10.957,4.561l1.945,-5.048c0.171,-19.063 1.006,-39.822 2.484,-62.45c0.36,-5.518 0.115,-11.148 -0.604,-16.849l-3.825,-6.136l-14.886,9.122l5.686,-14.759l-12.044,-1.742l8.529,-7.379l-14.886,-9.122l18.401,0l-1.757,-10.198l4.514,1.879c-3.95,-10.587 -8.515,-21.121 -12.911,-31.364l-1.673,2.685l-5.686,-9.122l-14.887,9.122l5.687,-14.759l-12.044,-1.742l8.529,-7.379l-14.886,-9.122l18.401,0l-1.758,-10.198l3.441,1.432c-5.222,-18.708 -5.15,-34.727 7.246,-45.896c6.245,-5.627 16.611,-9.972 28.04,-14.232l-9.013,-1.304l8.529,-7.379l-14.886,-9.121l18.401,-0l-1.758,-10.198l10.958,4.56l5.686,-14.758l5.686,14.758l10.957,-4.56Z"/></clipPath><g clip-path="url(#_clip1)"><path d="M389.933,329.035c126.25,-0 228.75,43.688 228.75,97.5c-0,53.811 -103.75,-24.999 -230,-24.999c-126.251,0 -227.5,78.81 -227.5,24.999c-0,-53.812 102.499,-97.5 228.75,-97.5Z" style="fill:#272727;"/><path d="M398.58,190c126.251,0 228.75,-43.688 228.75,-97.5c0,-53.812 -103.749,24.999 -230,24.999c-126.25,-0 -227.5,-78.811 -227.5,-24.999c0,53.812 102.5,97.5 228.75,97.5Z" style="fill:#272727;"/><path d="M398.58,585.335c126.251,0 228.75,-43.688 228.75,-97.5c0,-53.811 -103.749,24.999 -230,24.999c-126.25,-0 -227.5,-78.81 -227.5,-24.999c0,53.812 102.5,97.5 228.75,97.5Z" style="fill:#272727;"/><path d="M398.58,699.035c126.251,-0 228.75,-43.689 228.75,-97.5c0,-53.812 -103.749,24.998 -230,24.998c-126.25,0 -227.5,-78.81 -227.5,-24.998c0,53.811 102.5,97.5 228.75,97.5Z" style="fill:#272727;"/></g><path d="M179.93,166.801l-1.757,10.198l8.895,-0c9.371,-5.921 15.966,-13.258 16.675,-23.222c2.477,-34.828 19.894,-67.598 37.157,-92.094l-8.186,5.016l5.687,-14.759l-12.044,-1.742l8.529,-7.379l-14.886,-9.122l18.401,0l-1.758,-10.198l10.958,4.561l5.686,-14.759l5.686,14.759l10.957,-4.561l-0.611,3.55c4.919,-5.169 8.011,-8.014 8.011,-8.014c0,-0 29.754,24.442 52.124,60.304l4.86,2.022l5.686,-14.758l5.686,14.758l10.957,-4.56l-1.757,10.198l18.401,-0l-14.886,9.121l8.529,7.379l-12.044,1.742l5.686,14.759l-14.886,-9.121l-0.223,0.357c5.084,13.49 8.28,27.824 8.28,42.541c-0,12.358 -0.991,24.316 -2.84,35.639c11.907,-1.075 43.091,49.619 56.427,49.619c21.172,-0 21.786,-50.755 39.27,-49.518c-1.861,-11.354 -2.857,-23.346 -2.857,-35.74c-0,-16.617 4.456,-31.679 11.31,-45.014l-0.739,-1.186l-14.886,9.122l5.686,-14.759l-12.044,-1.742l8.529,-7.379l-14.886,-9.122l18.401,0l-1.757,-10.198l10.957,4.561l5.686,-14.759l5.686,14.759l10.957,-4.561l-1.04,6.042c23.618,-26.123 51.727,-40.506 51.727,-40.506c0,-0 66.413,42.772 66.413,114.742c-0,9.778 3.515,17.187 9.391,23.222l1.98,-0l-1.757,-10.198l10.957,4.56l5.686,-14.758l5.686,14.758l10.957,-4.56l-1.757,10.198l18.401,-0l-14.886,9.121l8.529,7.379l-12.044,1.742l0.123,0.318c10.259,4.238 21.445,8.377 32.321,13.476c9.096,9.627 6.268,25.855 -0.894,45.67l-1.55,8.992l18.401,0l-14.886,9.122l8.529,7.379l-12.044,1.742l5.686,14.759l-14.886,-9.122l-5.686,9.122l-0.473,-0.758c-7.247,17.468 -14.222,35.894 -17.659,53.976l0.531,1.378l10.958,-4.561l-1.758,10.198l18.401,0l-14.886,9.122l8.529,7.379l-12.044,1.742l5.687,14.759l-14.887,-9.122l-1.949,3.126c3.246,28.215 5.536,53.502 6.731,76.169l1.792,4.652l10.957,-4.561l-1.757,10.198l18.401,-0l-14.886,9.121l8.529,7.38l-12.044,1.742l5.686,14.758l-14.886,-9.121l-0.837,1.344c-0.094,27.001 -2.361,49.441 -7.146,68.077l15.584,0l-14.886,9.122l8.529,7.379l-12.044,1.742l5.686,14.759l-12.156,-7.449c-10.795,21.741 -27.274,36.295 -50.503,45.991l5.73,4.957l-12.044,1.742l5.686,14.759l-14.886,-9.122l-5.686,9.122l-5.686,-9.122l-14.886,9.122l4.123,-10.703c-30.791,5.796 -69.311,7.599 -116.73,7.963l3.396,2.938l-12.044,1.742l5.686,14.758l-14.886,-9.121l-5.686,9.121l-5.686,-9.121l-14.887,9.121l5.687,-14.758l-12.044,-1.742l3.375,-2.92c-33.168,-0.214 -62.329,-1.095 -87.67,-4.138l5.224,13.558l-14.887,-9.121l-5.686,9.121l-5.686,-9.121l-14.886,9.121l5.686,-14.758l-12.044,-1.742l4.693,-4.06c-40.033,-10.877 -67.075,-32.195 -82.49,-73.833l-12.558,7.695l5.686,-14.759l-12.044,-1.742l8.529,-7.379l-14.886,-9.122l17.891,0c-3.98,-17.664 -6.513,-38.148 -7.661,-61.901l-2.629,-4.219l-14.886,9.122l5.686,-14.759l-12.044,-1.742l8.529,-7.379l-14.886,-9.122l18.401,0l-1.757,-10.198l10.957,4.561l1.945,-5.048c0.171,-19.063 1.006,-39.822 2.484,-62.45c0.36,-5.518 0.115,-11.148 -0.604,-16.849l-3.825,-6.136l-14.886,9.122l5.686,-14.759l-12.044,-1.742l8.529,-7.379l-14.886,-9.122l18.401,0l-1.757,-10.198l4.514,1.879c-3.95,-10.587 -8.515,-21.121 -12.911,-31.364l-1.673,2.685l-5.686,-9.122l-14.887,9.122l5.687,-14.759l-12.044,-1.742l8.529,-7.379l-14.886,-9.122l18.401,0l-1.758,-10.198l3.441,1.432c-5.222,-18.708 -5.15,-34.727 7.246,-45.896c6.245,-5.627 16.611,-9.972 28.04,-14.232l-9.013,-1.304l8.529,-7.379l-14.886,-9.121l18.401,-0l-1.758,-10.198l10.958,4.56l5.686,-14.758l5.686,14.758l10.957,-4.56Z" style="fill:none;stroke:#000;stroke-width:4.17px;"/><path d="M496.998,13.301l-70.224,27.186l2.882,7.444l67.342,-34.63Z" style="stroke:#000;stroke-width:4.17px;"/><path d="M314.202,13.301l62.261,24.103l-4.45,11.495l-57.811,-35.598Z" style="stroke:#000;stroke-width:4.17px;"/><path d="M786.182,545.674l-111.703,-0c-0,-0 -8.593,71.033 8.592,85.239c17.185,14.207 77.334,14.207 94.519,0c17.185,-14.206 8.592,-85.239 8.592,-85.239Z"/><clipPath id="_clip2"><path d="M786.182,545.674l-111.703,-0c-0,-0 -8.593,71.033 8.592,85.239c17.185,14.207 77.334,14.207 94.519,0c17.185,-14.206 8.592,-85.239 8.592,-85.239Z"/></clipPath><g clip-path="url(#_clip2)"><path d="M726.034,540.346l-38.376,0l-0,53.275l12.598,-37.292l25.778,-15.983Z" style="fill:#fff;stroke:#000;stroke-width:4.17px;"/><path d="M732.769,540.346l55.561,0l-22.662,69.257l-8.593,-53.274l-24.306,-15.983Z" style="fill:#fff;stroke:#000;stroke-width:4.17px;"/><path d="M714.326,630.913l55.562,0l-22.663,-69.257l-8.592,53.275l-24.307,15.982Z" style="fill:#fff;stroke:#000;stroke-width:4.17px;"/><path d="M738.778,630.913l-38.376,0l-0,-53.275l12.598,37.293l25.778,15.982Z" style="fill:#fff;stroke:#000;stroke-width:4.17px;"/></g><path d="M786.182,545.674l-111.703,-0c-0,-0 -8.593,71.033 8.592,85.239c17.185,14.207 77.334,14.207 94.519,0c17.185,-14.206 8.592,-85.239 8.592,-85.239Z" style="fill:none;stroke:#000;stroke-width:4.17px;"/><ellipse cx="672.33" cy="91.619" rx="45" ry="73.113"/><clipPath id="_clip3"><ellipse cx="672.33" cy="91.619" rx="45" ry="73.113"/></clipPath><g clip-path="url(#_clip3)"><ellipse cx="672.33" cy="90.029" rx="36" ry="58.808" style="fill:#f00;stroke:#000;stroke-width:4.17px;"/><path d="M672.475,38.107c11.042,-2.41 23.378,11.082 27.531,30.111c4.153,19.028 -1.44,36.433 -12.481,38.843c-11.042,2.41 -3.372,-15.448 -7.525,-34.477c-4.153,-19.028 -18.566,-32.067 -7.525,-34.477Z" style="fill:#ffd3d3;"/></g><ellipse cx="672.33" cy="91.619" rx="45" ry="73.113" style="fill:none;stroke:#000;stroke-width:4.17px;"/><ellipse cx="748.33" cy="218.838" rx="40" ry="70"/><clipPath id="_clip4"><ellipse cx="748.33" cy="218.838" rx="40" ry="70"/></clipPath><g clip-path="url(#_clip4)"><ellipse cx="748.33" cy="220.359" rx="32" ry="56.304" style="fill:#f00;"/><clipPath id="_clip5"><ellipse cx="748.33" cy="220.359" rx="32" ry="56.304"/></clipPath><g clip-path="url(#_clip5)"><path d="M745.08,170.082c11.042,-2.41 23.378,11.082 27.531,30.11c4.153,19.028 -1.44,36.434 -12.481,38.843c-11.042,2.41 -3.372,-15.448 -7.525,-34.476c-4.153,-19.029 -18.566,-32.068 -7.525,-34.477Z" style="fill:#ffd3d3;"/></g><ellipse cx="748.33" cy="220.359" rx="32" ry="56.304" style="fill:none;stroke:#000;stroke-width:4.17px;"/></g><ellipse cx="748.33" cy="218.838" rx="40" ry="70" style="fill:none;stroke:#000;stroke-width:4.17px;"/><path d="M332.135,684.099c-10.25,-13.822 -53.011,-14.709 -61.023,0c-8.718,16.003 8.717,96.018 8.717,96.018l65.504,4.064c-0,-0 -0.827,-83.401 -13.198,-100.082Z" style="stroke:#000;stroke-width:4.17px;"/><path d="M535.798,694.362c-9.367,-13.39 -54.582,-13.76 -62.833,-0c-8.976,14.97 8.976,89.819 8.976,89.819l53.857,-0c-0,-0 10.472,-74.849 -0,-89.819Z" style="stroke:#000;stroke-width:4.17px;"/><path d="M91.139,359.859c5.301,0.308 12.506,12.196 18.952,18.105c7.406,6.79 25.485,17.299 25.485,22.636c-0,9.992 -10.444,18.105 -23.307,18.105c-3.403,-0 -6.636,-0.568 -9.55,-1.587l-30.532,60.425l-29.17,-60.943c-3.256,1.343 -6.97,2.105 -10.912,2.105c-12.863,-0 -23.307,-8.113 -23.307,-18.105c0,-9.993 18.892,-15.846 25.485,-22.636c5.351,-5.511 13.414,-18.149 14.074,-18.105l42.782,0Z" style="fill:#600c0f;"/><clipPath id="_clip6"><path d="M91.139,359.859c5.301,0.308 12.506,12.196 18.952,18.105c7.406,6.79 25.485,17.299 25.485,22.636c-0,9.992 -10.444,18.105 -23.307,18.105c-3.403,-0 -6.636,-0.568 -9.55,-1.587l-30.532,60.425l-29.17,-60.943c-3.256,1.343 -6.97,2.105 -10.912,2.105c-12.863,-0 -23.307,-8.113 -23.307,-18.105c0,-9.993 18.892,-15.846 25.485,-22.636c5.351,-5.511 13.414,-18.149 14.074,-18.105l42.782,0Z"/></clipPath><g clip-path="url(#_clip6)"><path d="M75.13,437.398c5.301,0.323 27.83,-29.579 37.904,-34.665c6.821,-3.443 22.542,-1.437 22.542,4.152c-0,10.466 -10.444,18.962 -23.307,18.962c-3.403,0 -6.636,-0.594 -9.55,-1.662l-30.532,63.284l-29.17,-63.827c-3.256,1.408 -6.97,2.205 -10.912,2.205c-12.863,0 -23.307,-8.496 -23.307,-18.962c0,-10.465 13.083,-6.868 18.952,-4.152c10.565,4.89 43.778,33.446 44.437,33.492l2.943,1.173Z" style="fill:#272727;stroke:#000;stroke-width:4.17px;"/></g><path d="M91.139,359.859c5.301,0.308 12.506,12.196 18.952,18.105c7.406,6.79 25.485,17.299 25.485,22.636c-0,9.992 -10.444,18.105 -23.307,18.105c-3.403,-0 -6.636,-0.568 -9.55,-1.587l-30.532,60.425l-29.17,-60.943c-3.256,1.343 -6.97,2.105 -10.912,2.105c-12.863,-0 -23.307,-8.113 -23.307,-18.105c0,-9.993 18.892,-15.846 25.485,-22.636c5.351,-5.511 13.414,-18.149 14.074,-18.105l42.782,0Z" style="fill:none;stroke:#000;stroke-width:4.17px;"/><path d="M69.42,580.691c5.81,-5.055 13.976,-3.145 26.636,9.312c8.641,8.502 16.393,14.388 22.876,20.563l2.948,-7.651l4.947,12.84l9.533,-3.968l-1.529,8.873l16.009,-0l-12.951,7.935l7.42,6.42l-9.913,1.434c0.472,1.56 0.907,3.199 1.302,4.926l3.08,7.996l-1.784,-1.093c0.901,5.973 1.426,12.87 1.539,20.966l5.527,-2.3l-1.528,8.872l16.008,0l-12.951,7.936l7.42,6.42l-10.477,1.515l4.947,12.841l-4.903,-3.004c10.347,41.97 31.555,73.747 -51.87,71.183c-95.492,-2.934 -63.948,-46.329 -48.244,-98.724l-11.941,7.316l4.947,-12.84l-10.477,-1.515l7.42,-6.42l-12.951,-7.936l16.008,-0l-1.528,-8.872l9.533,3.967l4.947,-12.84l2.135,5.544c1.739,-8.651 3.263,-16.964 4.81,-24.549l-7.443,4.561l4.947,-12.84l-10.478,-1.516l7.42,-6.42l-12.951,-7.936l16.009,0l-1.529,-8.872l9.533,3.968l4.947,-12.84l2.6,6.748Z" style="fill:#600c0f;"/><clipPath id="_clip7"><path d="M69.42,580.691c5.81,-5.055 13.976,-3.145 26.636,9.312c8.641,8.502 16.393,14.388 22.876,20.563l2.948,-7.651l4.947,12.84l9.533,-3.968l-1.529,8.873l16.009,-0l-12.951,7.935l7.42,6.42l-9.913,1.434c0.472,1.56 0.907,3.199 1.302,4.926l3.08,7.996l-1.784,-1.093c0.901,5.973 1.426,12.87 1.539,20.966l5.527,-2.3l-1.528,8.872l16.008,0l-12.951,7.936l7.42,6.42l-10.477,1.515l4.947,12.841l-4.903,-3.004c10.347,41.97 31.555,73.747 -51.87,71.183c-95.492,-2.934 -63.948,-46.329 -48.244,-98.724l-11.941,7.316l4.947,-12.84l-10.477,-1.515l7.42,-6.42l-12.951,-7.936l16.008,-0l-1.528,-8.872l9.533,3.967l4.947,-12.84l2.135,5.544c1.739,-8.651 3.263,-16.964 4.81,-24.549l-7.443,4.561l4.947,-12.84l-10.478,-1.516l7.42,-6.42l-12.951,-7.936l16.009,0l-1.529,-8.872l9.533,3.968l4.947,-12.84l2.6,6.748Z"/></clipPath><g clip-path="url(#_clip7)"><path d="M89.731,791.092c-50.418,0 -91.351,-25.938 -91.351,-57.888c0,-31.949 41.433,14.843 91.851,14.843c50.418,-0 90.851,-46.792 90.851,-14.843c0,31.95 -40.933,57.888 -91.351,57.888Z" style="fill:#272727;"/><path d="M90,699.758c-50.418,0 -91.351,-25.938 -91.351,-57.888c-0,-31.949 41.432,14.843 91.85,14.843c50.418,-0 90.852,-46.792 90.852,-14.843c0,31.95 -40.933,57.888 -91.351,57.888Z" style="fill:#272727;"/></g><path d="M69.42,580.691c5.81,-5.055 13.976,-3.145 26.636,9.312c8.641,8.502 16.393,14.388 22.876,20.563l2.948,-7.651l4.947,12.84l9.533,-3.968l-1.529,8.873l16.009,-0l-12.951,7.935l7.42,6.42l-9.913,1.434c0.472,1.56 0.907,3.199 1.302,4.926l3.08,7.996l-1.784,-1.093c0.901,5.973 1.426,12.87 1.539,20.966l5.527,-2.3l-1.528,8.872l16.008,0l-12.951,7.936l7.42,6.42l-10.477,1.515l4.947,12.841l-4.903,-3.004c10.347,41.97 31.555,73.747 -51.87,71.183c-95.492,-2.934 -63.948,-46.329 -48.244,-98.724l-11.941,7.316l4.947,-12.84l-10.477,-1.515l7.42,-6.42l-12.951,-7.936l16.008,-0l-1.528,-8.872l9.533,3.967l4.947,-12.84l2.135,5.544c1.739,-8.651 3.263,-16.964 4.81,-24.549l-7.443,4.561l4.947,-12.84l-10.478,-1.516l7.42,-6.42l-12.951,-7.936l16.009,0l-1.529,-8.872l9.533,3.968l4.947,-12.84l2.6,6.748Z" style="fill:none;stroke:#000;stroke-width:4.17px;"/><path d="M622.937,657.123c6.052,-4.62 13.22,-9.112 21.175,-15.494c17.992,-14.435 26.493,-10.703 32.214,2.029l1.523,-3.223l4.73,10.01l9.115,-3.093l-1.462,6.916l15.307,0l-12.383,6.187l7.094,5.005l-10.018,1.182l4.73,10.01l-10.59,-5.291c1.61,6.814 3.328,14.092 5.426,21.465l7.48,-2.539l-1.462,6.917l15.307,-0l-12.383,6.187l7.095,5.005l-10.019,1.181l4.73,10.011l-1.43,-0.715c15.037,35.393 31.528,63.131 -50.845,65.195c-74.327,1.862 -61.788,-19.522 -51.731,-48.913l-5.086,2.542l4.73,-10.011l-10.019,-1.181l7.095,-5.005l-12.383,-6.187l15.307,-0l-1.462,-6.917l7.583,2.573c0.139,-1.622 0.214,-3.258 0.214,-4.902c0,-11.167 1.147,-19.552 3.276,-26.192l-11.607,5.799l4.73,-10.01l-10.018,-1.182l7.095,-5.005l-12.384,-6.187l15.307,0l-1.462,-6.917l9.115,3.094l4.73,-10.011l4.73,10.011l6.906,-2.344Z" style="fill:#600c0f;"/><clipPath id="_clip8"><path d="M622.937,657.123c6.052,-4.62 13.22,-9.112 21.175,-15.494c17.992,-14.435 26.493,-10.703 32.214,2.029l1.523,-3.223l4.73,10.01l9.115,-3.093l-1.462,6.916l15.307,0l-12.383,6.187l7.094,5.005l-10.018,1.182l4.73,10.01l-10.59,-5.291c1.61,6.814 3.328,14.092 5.426,21.465l7.48,-2.539l-1.462,6.917l15.307,-0l-12.383,6.187l7.095,5.005l-10.019,1.181l4.73,10.011l-1.43,-0.715c15.037,35.393 31.528,63.131 -50.845,65.195c-74.327,1.862 -61.788,-19.522 -51.731,-48.913l-5.086,2.542l4.73,-10.011l-10.019,-1.181l7.095,-5.005l-12.383,-6.187l15.307,-0l-1.462,-6.917l7.583,2.573c0.139,-1.622 0.214,-3.258 0.214,-4.902c0,-11.167 1.147,-19.552 3.276,-26.192l-11.607,5.799l4.73,-10.01l-10.018,-1.182l7.095,-5.005l-12.384,-6.187l15.307,0l-1.462,-6.917l9.115,3.094l4.73,-10.011l4.73,10.011l6.906,-2.344Z"/></clipPath><g clip-path="url(#_clip8)"><path d="M650.159,798.401c48.207,-0 87.344,-20.222 87.344,-45.13c0,-24.908 -39.614,11.571 -87.821,11.571c-48.207,-0 -86.867,-36.479 -86.867,-11.571c0,24.908 39.138,45.13 87.344,45.13Z" style="fill:#272727;"/><path d="M646.158,720.035c48.206,0 87.344,-20.222 87.344,-45.13c-0,-24.908 -39.615,11.571 -87.822,11.571c-48.206,0 -86.867,-36.479 -86.867,-11.571c0,24.908 39.138,45.13 87.345,45.13Z" style="fill:#272727;"/></g><path d="M622.937,657.123c6.052,-4.62 13.22,-9.112 21.175,-15.494c17.992,-14.435 26.493,-10.703 32.214,2.029l1.523,-3.223l4.73,10.01l9.115,-3.093l-1.462,6.916l15.307,0l-12.383,6.187l7.094,5.005l-10.018,1.182l4.73,10.01l-10.59,-5.291c1.61,6.814 3.328,14.092 5.426,21.465l7.48,-2.539l-1.462,6.917l15.307,-0l-12.383,6.187l7.095,5.005l-10.019,1.181l4.73,10.011l-1.43,-0.715c15.037,35.393 31.528,63.131 -50.845,65.195c-74.327,1.862 -61.788,-19.522 -51.731,-48.913l-5.086,2.542l4.73,-10.011l-10.019,-1.181l7.095,-5.005l-12.383,-6.187l15.307,-0l-1.462,-6.917l7.583,2.573c0.139,-1.622 0.214,-3.258 0.214,-4.902c0,-11.167 1.147,-19.552 3.276,-26.192l-11.607,5.799l4.73,-10.01l-10.018,-1.182l7.095,-5.005l-12.384,-6.187l15.307,0l-1.462,-6.917l9.115,3.094l4.73,-10.011l4.73,10.011l6.906,-2.344Z" style="fill:none;stroke:#000;stroke-width:4.17px;"/><path d="M707.032,350.219c5.56,-6.187 12.144,-12.202 19.451,-20.749c16.529,-19.331 24.337,-14.333 29.593,2.717l1.399,-4.317l4.345,13.406l8.373,-4.143l-1.343,9.263l14.061,0l-11.375,8.285l6.517,6.703l-9.203,1.582l4.345,13.406l-9.728,-7.086c1.479,9.125 3.058,18.871 4.984,28.744l6.872,-3.4l-1.343,9.263l14.061,0l-11.376,8.285l6.518,6.703l-9.203,1.582l4.345,13.405l-1.314,-0.956c13.813,47.396 28.962,84.541 -46.707,87.305c-68.278,2.494 -56.759,-26.143 -47.52,-65.501l-4.673,3.403l4.345,-13.405l-9.203,-1.583l6.517,-6.702l-11.375,-8.285l14.061,-0l-1.343,-9.263l6.966,3.446c0.128,-2.172 0.197,-4.363 0.197,-6.565c-0,-14.955 1.054,-26.183 3.009,-35.074l-10.662,7.765l4.345,-13.405l-9.203,-1.582l6.517,-6.703l-11.375,-8.285l14.061,-0l-1.343,-9.263l8.373,4.142l4.345,-13.405l4.345,13.405l6.344,-3.138Z" style="fill:#600c0f;"/><clipPath id="_clip9"><path d="M707.032,350.219c5.56,-6.187 12.144,-12.202 19.451,-20.749c16.529,-19.331 24.337,-14.333 29.593,2.717l1.399,-4.317l4.345,13.406l8.373,-4.143l-1.343,9.263l14.061,0l-11.375,8.285l6.517,6.703l-9.203,1.582l4.345,13.406l-9.728,-7.086c1.479,9.125 3.058,18.871 4.984,28.744l6.872,-3.4l-1.343,9.263l14.061,0l-11.376,8.285l6.518,6.703l-9.203,1.582l4.345,13.405l-1.314,-0.956c13.813,47.396 28.962,84.541 -46.707,87.305c-68.278,2.494 -56.759,-26.143 -47.52,-65.501l-4.673,3.403l4.345,-13.405l-9.203,-1.583l6.517,-6.702l-11.375,-8.285l14.061,-0l-1.343,-9.263l6.966,3.446c0.128,-2.172 0.197,-4.363 0.197,-6.565c-0,-14.955 1.054,-26.183 3.009,-35.074l-10.662,7.765l4.345,-13.405l-9.203,-1.582l6.517,-6.703l-11.375,-8.285l14.061,-0l-1.343,-9.263l8.373,4.142l4.345,-13.405l4.345,13.405l6.344,-3.138Z"/></clipPath><g clip-path="url(#_clip9)"><path d="M732.039,539.411c44.283,-0 80.235,-27.08 80.235,-60.436c0,-33.355 -36.39,15.496 -80.674,15.496c-44.283,-0 -79.797,-48.851 -79.797,-15.496c0,33.356 35.952,60.436 80.236,60.436Z" style="fill:#272727;"/><path d="M728.677,430.734c44.283,-0 80.236,-27.081 80.236,-60.436c-0,-33.356 -36.391,15.495 -80.674,15.495c-44.284,0 -79.798,-48.851 -79.798,-15.495c0,33.355 35.953,60.436 80.236,60.436Z" style="fill:#272727;"/></g><path d="M707.032,350.219c5.56,-6.187 12.144,-12.202 19.451,-20.749c16.529,-19.331 24.337,-14.333 29.593,2.717l1.399,-4.317l4.345,13.406l8.373,-4.143l-1.343,9.263l14.061,0l-11.375,8.285l6.517,6.703l-9.203,1.582l4.345,13.406l-9.728,-7.086c1.479,9.125 3.058,18.871 4.984,28.744l6.872,-3.4l-1.343,9.263l14.061,0l-11.376,8.285l6.518,6.703l-9.203,1.582l4.345,13.405l-1.314,-0.956c13.813,47.396 28.962,84.541 -46.707,87.305c-68.278,2.494 -56.759,-26.143 -47.52,-65.501l-4.673,3.403l4.345,-13.405l-9.203,-1.583l6.517,-6.702l-11.375,-8.285l14.061,-0l-1.343,-9.263l6.966,3.446c0.128,-2.172 0.197,-4.363 0.197,-6.565c-0,-14.955 1.054,-26.183 3.009,-35.074l-10.662,7.765l4.345,-13.405l-9.203,-1.582l6.517,-6.703l-11.375,-8.285l14.061,-0l-1.343,-9.263l8.373,4.142l4.345,-13.405l4.345,13.405l6.344,-3.138Z" style="fill:none;stroke:#000;stroke-width:4.17px;"/><path d="M47.381,33.097c5.552,-5.287 12.127,-10.428 19.424,-17.731c16.505,-16.519 24.303,-12.249 29.551,2.322l1.397,-3.689l4.339,11.456l8.361,-3.54l-1.341,7.915l14.042,0l-11.36,7.08l6.508,5.728l-9.19,1.352l4.339,11.456l-9.715,-6.055c1.478,7.798 3.054,16.126 4.978,24.563l6.862,-2.905l-1.341,7.916l14.041,-0l-11.359,7.08l6.508,5.727l-9.19,1.353l4.339,11.455l-1.312,-0.817c13.793,40.502 28.921,72.245 -46.642,74.607c-68.182,2.131 -56.679,-22.34 -47.453,-55.974l-4.667,2.908l4.339,-11.456l-9.19,-1.352l6.509,-5.728l-11.36,-7.08l14.041,0l-1.34,-7.916l6.956,2.946c0.127,-1.856 0.196,-3.729 0.196,-5.611c0,-12.779 1.053,-22.374 3.005,-29.973l-10.647,6.636l4.339,-11.455l-9.19,-1.352l6.508,-5.728l-11.359,-7.08l14.041,-0l-1.341,-7.916l8.361,3.54l4.339,-11.456l4.339,11.456l6.335,-2.682Z" style="fill:#600c0f;"/><clipPath id="_clip10"><path d="M47.381,33.097c5.552,-5.287 12.127,-10.428 19.424,-17.731c16.505,-16.519 24.303,-12.249 29.551,2.322l1.397,-3.689l4.339,11.456l8.361,-3.54l-1.341,7.915l14.042,0l-11.36,7.08l6.508,5.728l-9.19,1.352l4.339,11.456l-9.715,-6.055c1.478,7.798 3.054,16.126 4.978,24.563l6.862,-2.905l-1.341,7.916l14.041,-0l-11.359,7.08l6.508,5.727l-9.19,1.353l4.339,11.455l-1.312,-0.817c13.793,40.502 28.921,72.245 -46.642,74.607c-68.182,2.131 -56.679,-22.34 -47.453,-55.974l-4.667,2.908l4.339,-11.456l-9.19,-1.352l6.509,-5.728l-11.36,-7.08l14.041,0l-1.34,-7.916l6.956,2.946c0.127,-1.856 0.196,-3.729 0.196,-5.611c0,-12.779 1.053,-22.374 3.005,-29.973l-10.647,6.636l4.339,-11.455l-9.19,-1.352l6.508,-5.728l-11.359,-7.08l14.041,-0l-1.341,-7.916l8.361,3.54l4.339,-11.456l4.339,11.456l6.335,-2.682Z"/></clipPath><g clip-path="url(#_clip10)"><path d="M72.353,194.772c44.221,0 80.122,-23.141 80.122,-51.646c0,-28.504 -36.339,13.242 -80.56,13.242c-44.221,0 -79.685,-41.746 -79.685,-13.242c-0,28.505 35.902,51.646 80.123,51.646Z" style="fill:#272727;"/><path d="M67.077,109.147c44.221,0 80.123,-23.142 80.123,-51.646c0,-28.504 -36.339,13.242 -80.56,13.242c-44.221,-0 -79.686,-41.746 -79.686,-13.242c0,28.504 35.902,51.646 80.123,51.646Z" style="fill:#272727;"/></g><path d="M47.381,33.097c5.552,-5.287 12.127,-10.428 19.424,-17.731c16.505,-16.519 24.303,-12.249 29.551,2.322l1.397,-3.689l4.339,11.456l8.361,-3.54l-1.341,7.915l14.042,0l-11.36,7.08l6.508,5.728l-9.19,1.352l4.339,11.456l-9.715,-6.055c1.478,7.798 3.054,16.126 4.978,24.563l6.862,-2.905l-1.341,7.916l14.041,-0l-11.359,7.08l6.508,5.727l-9.19,1.353l4.339,11.455l-1.312,-0.817c13.793,40.502 28.921,72.245 -46.642,74.607c-68.182,2.131 -56.679,-22.34 -47.453,-55.974l-4.667,2.908l4.339,-11.456l-9.19,-1.352l6.509,-5.728l-11.36,-7.08l14.041,0l-1.34,-7.916l6.956,2.946c0.127,-1.856 0.196,-3.729 0.196,-5.611c0,-12.779 1.053,-22.374 3.005,-29.973l-10.647,6.636l4.339,-11.455l-9.19,-1.352l6.508,-5.728l-11.359,-7.08l14.041,-0l-1.341,-7.916l8.361,3.54l4.339,-11.456l4.339,11.456l6.335,-2.682Z" style="fill:none;stroke:#000;stroke-width:4.17px;"/></svg>