<?xml version="1.0" encoding="UTF-8" standalone="no"?><!DOCTYPE svg PUBLIC "-//W3C//DTD SVG 1.1//EN" "http://www.w3.org/Graphics/SVG/1.1/DTD/svg11.dtd"><svg width="100%" height="100%" viewBox="0 0 3334 2500" version="1.1" xmlns="http://www.w3.org/2000/svg" xmlns:xlink="http://www.w3.org/1999/xlink" xml:space="preserve" xmlns:serif="http://www.serif.com/" style="fill-rule:evenodd;clip-rule:evenodd;stroke-linecap:round;stroke-linejoin:round;stroke-miterlimit:1.5;"><ellipse cx="1150" cy="1695.23" rx="295.83" ry="422.527" style="fill:url(#_Linear1);stroke:#000;stroke-width:8.33px;"/><path d="M990.995,2261.21l-34.803,-94.547l-67.481,74.759l-3.399,130.756l47.136,9.119l58.547,-120.087Z" style="fill:#ff8100;stroke:#000;stroke-width:8.33px;"/><path d="M886.357,2103.11l67.14,15.218l71.176,73.805l-10.892,141.2l-43.544,-100.738l-47.405,76.369l-2.871,-89.84l-88.079,65.47l61.168,-127.729l-6.693,-53.755Z" style="fill:#333;stroke:#000;stroke-width:8.33px;"/><ellipse cx="1166.67" cy="760.616" rx="261.051" ry="427.283" style="fill:url(#_Linear2);stroke:#000;stroke-width:8.33px;"/><path d="M2649.47,1714.3c90.666,51.91 511.901,535.211 515.897,605.598c3.995,70.386 -404.319,-157.395 -491.924,-183.279" style="fill:url(#_Linear3);stroke:#000;stroke-width:8.33px;"/><path d="M223.945,1883.22c39.814,-31.236 71.404,-254.568 165.2,-401.309c99.847,-156.209 260.82,-236.376 257.605,-272.585c-6.235,-70.223 -377.278,214.261 -460.214,252.553" style="fill:url(#_Linear4);stroke:#000;stroke-width:8.33px;"/><path d="M628.217,690.482c-43.916,25.144 -107.5,241.552 -221.548,373.171c-121.407,140.111 -292.288,196.134 -294.348,232.427c-3.996,70.386 404.319,-157.395 491.924,-183.279" style="fill:url(#_Linear5);stroke:#000;stroke-width:8.33px;"/><path d="M706.633,1714.3c-90.666,51.91 -511.901,535.211 -515.896,605.598c-3.996,70.386 404.319,-157.395 491.924,-183.279" style="fill:url(#_Linear6);stroke:#000;stroke-width:8.33px;"/><path d="M2166.67,1666.67c183.971,-0 333.333,108.729 333.333,321.969c0,213.24 -149.362,386.364 -333.333,386.364c-183.972,-0 -333.334,-173.124 -333.334,-386.364c0,-213.24 149.362,-321.969 333.334,-321.969Z" style="fill:#333;stroke:#000;stroke-width:8.33px;"/><path d="M2189.93,808.391c171.132,0 310.07,87.765 310.07,259.889c0,172.124 -138.938,311.867 -310.07,311.867c-171.132,-0 -310.07,-139.743 -310.07,-311.867c-0,-172.124 138.938,-259.889 310.07,-259.889Z" style="fill:#ebebeb;stroke:#000;stroke-width:8.33px;"/><path d="M2768.16,1033.65c47.4,-0 85.883,-43.958 85.883,-98.101c-0,-54.144 -30.676,-52.824 -78.076,-52.824c-47.4,-0 -93.69,-1.32 -93.69,52.824c-0,54.143 38.483,98.101 85.883,98.101Z" style="fill:#fff;stroke:#000;stroke-width:8.33px;"/><path d="M3018.01,1033.65c47.4,-0 85.883,-43.958 85.883,-98.101c-0,-54.144 -30.676,-52.824 -78.076,-52.824c-47.4,-0 -93.69,-1.32 -93.69,52.824c-0,54.143 38.483,98.101 85.883,98.101Z" style="fill:#fff;stroke:#000;stroke-width:8.33px;"/><path d="M3010.2,980.823c22.566,-0 31.23,-5.251 31.23,-24.321c0,-19.071 -8.664,-20.957 -31.23,-20.957c-22.565,0 -31.23,1.886 -31.23,20.957c0,19.07 8.665,24.321 31.23,24.321Z" style="stroke:#000;stroke-width:8.33px;"/><path d="M2776.41,988.369c22.566,-0 31.231,-5.25 31.231,-24.321c-0,-19.071 -8.665,-20.957 -31.231,-20.957c-22.565,0 -31.23,1.886 -31.23,20.957c0,19.071 8.665,24.321 31.23,24.321Z" style="stroke:#000;stroke-width:8.33px;"/><path d="M1278.84,2263.8c59.241,-0 113.158,60.955 113.158,99.331c-0,17.641 -58.37,-32.131 -75.109,-19.867c-19.673,14.415 -30.362,59.599 -42.88,59.599c-12.519,-0 -12.866,-47.312 -32.229,-59.599c-19.895,-12.624 -75.109,39.314 -75.109,19.867c-0,-38.376 52.927,-99.331 112.169,-99.331Z" style="fill:#ff8100;stroke:#000;stroke-width:8.33px;"/><path d="M2995.02,1154.31c-28.673,52.751 -87.754,150.925 -93.691,150.925c-5.937,0 -84.695,-126.319 -93.69,-150.925" style="fill:#ff8100;stroke:#000;stroke-width:8.33px;"/><path d="M2876.34,1166.38c-6.373,11.529 -19.476,33 -20.765,33.016c-1.289,0.015 -18.038,-27.208 -19.923,-32.527"/><path d="M2962.27,1166.57c-6.373,11.529 -19.476,33 -20.765,33.016c-1.289,0.015 -18.038,-27.208 -19.922,-32.528"/><path d="M1215.28,2172.36l-0,0Z" style="fill:#ff8100;stroke:#000;stroke-width:8.33px;"/><path d="M1666.96,198.497l35.538,83.334l68.484,-25.752l-10.982,57.582l115.004,0l-93.04,51.503l53.307,41.666l-75.271,9.837l35.538,83.333l-93.04,-51.503l-35.538,51.503l-35.538,-51.503l-93.04,51.503l35.538,-83.333l-75.27,-9.837l53.307,-41.666l-93.04,-51.503l115.003,0l-10.981,-57.582l68.483,25.752l35.538,-83.334Z" style="fill:#333;stroke:#000;stroke-width:8.33px;"/><path d="M848,243.341l-370.008,62.124l-373.397,-78.012l-49.135,272.547l422.761,-56.725l417.22,55.186l-47.441,-255.12Z" style="fill:url(#_Linear7);stroke:#000;stroke-width:8.33px;"/><path d="M2666.67,411.259l-154.187,-184.216l-4.526,5.408l154.187,184.216l4.526,-5.408Z" style="stroke:#000;stroke-width:8.33px;"/><path d="M2512.48,416.667l154.187,-184.216l-4.526,-5.408l-154.187,184.216l4.526,5.408Z" style="stroke:#000;stroke-width:8.33px;"/><path d="M2674.37,1395.66l180.056,0l-7.703,-22.48l-180.056,0l7.703,22.48Z" style="stroke:#000;stroke-width:8.33px;"/><path d="M2985.34,1395.66l180.056,0l-7.703,-22.48l-180.056,0l7.703,22.48Z" style="stroke:#000;stroke-width:8.33px;"/><defs><linearGradient id="_Linear1" x1="0" y1="0" x2="1" y2="0" gradientUnits="userSpaceOnUse" gradientTransform="matrix(591.66,0,0,845.054,854.167,1695.23)"><stop offset="0" style="stop-color:#333;stop-opacity:1"/><stop offset="1" style="stop-color:#000;stop-opacity:1"/></linearGradient><linearGradient id="_Linear2" x1="0" y1="0" x2="1" y2="0" gradientUnits="userSpaceOnUse" gradientTransform="matrix(522.102,0,0,854.565,905.616,760.616)"><stop offset="0" style="stop-color:#fff;stop-opacity:0.32"/><stop offset="1" style="stop-color:#333;stop-opacity:1"/></linearGradient><linearGradient id="_Linear3" x1="0" y1="0" x2="1" y2="0" gradientUnits="userSpaceOnUse" gradientTransform="matrix(455.45,-66.6263,99.15,677.778,2662.03,2058.6)"><stop offset="0" style="stop-color:#333;stop-opacity:1"/><stop offset="1" style="stop-color:#000;stop-opacity:1"/></linearGradient><linearGradient id="_Linear4" x1="0" y1="0" x2="1" y2="0" gradientUnits="userSpaceOnUse" gradientTransform="matrix(460.298,5.96205e-14,1.02667e-13,-684.992,186.536,1540.72)"><stop offset="0" style="stop-color:#333;stop-opacity:1"/><stop offset="1" style="stop-color:#000;stop-opacity:1"/></linearGradient><linearGradient id="_Linear5" x1="0" y1="0" x2="1" y2="0" gradientUnits="userSpaceOnUse" gradientTransform="matrix(-455.45,-66.6263,-99.15,677.778,615.657,1034.79)"><stop offset="0" style="stop-color:#333;stop-opacity:1"/><stop offset="1" style="stop-color:#000;stop-opacity:1"/></linearGradient><linearGradient id="_Linear6" x1="0" y1="0" x2="1" y2="0" gradientUnits="userSpaceOnUse" gradientTransform="matrix(-455.45,-66.6263,-99.15,677.778,694.073,2058.6)"><stop offset="0" style="stop-color:#333;stop-opacity:1"/><stop offset="1" style="stop-color:#000;stop-opacity:1"/></linearGradient><linearGradient id="_Linear7" x1="0" y1="0" x2="1" y2="0" gradientUnits="userSpaceOnUse" gradientTransform="matrix(845.063,0,0,297.168,55.4603,351.416)"><stop offset="0" style="stop-color:#dc4aa1;stop-opacity:1"/><stop offset="0.51" style="stop-color:#d5d5d5;stop-opacity:1"/><stop offset="0.78" style="stop-color:#9672ea;stop-opacity:1"/><stop offset="1" style="stop-color:#7c49f3;stop-opacity:1"/></linearGradient></defs></svg>