<?xml version="1.0" encoding="UTF-8" standalone="no"?><!DOCTYPE svg PUBLIC "-//W3C//DTD SVG 1.1//EN" "http://www.w3.org/Graphics/SVG/1.1/DTD/svg11.dtd"><svg width="100%" height="100%" viewBox="0 0 500 500" version="1.1" xmlns="http://www.w3.org/2000/svg" xmlns:xlink="http://www.w3.org/1999/xlink" xml:space="preserve" xmlns:serif="http://www.serif.com/" style="fill-rule:evenodd;clip-rule:evenodd;stroke-linecap:round;stroke-linejoin:round;stroke-miterlimit:1.5;"><path d="M230.4,139.008c19.746,-0 39.227,62.713 46.428,127.06c5.666,50.642 -34.759,61.48 -46.428,61.451c-6.508,-0.017 -43.675,-11.057 -41.74,-61.025c2.469,-63.794 21.995,-127.486 41.74,-127.486Z" style="fill:#666;stroke:#000;stroke-width:8.33px;"/><path d="M137.163,250c-41.842,-1.713 -117.441,-26.973 -117.441,-40.671c0,-13.698 40.893,-33.706 83.337,-32.209c22.118,0.781 33.805,8.831 40.62,13.548" style="fill:#666;stroke:#000;stroke-width:8.33px;"/><path d="M19.722,270.627c1.543,38.126 24.286,107.013 36.62,107.013c12.334,-0 30.348,-37.262 29,-75.938c-0.703,-20.153 -7.951,-30.803 -12.198,-37.013" style="fill:#666;stroke:#000;stroke-width:8.33px;"/><path d="M100.173,353.207c1.072,15.23 16.873,42.748 25.442,42.748c8.569,-0 13.641,-28.271 18.064,-45.12" style="fill:#666;stroke:#000;stroke-width:8.33px;"/><ellipse cx="327.969" cy="257.259" rx="23.41" ry="87.572" style="fill:#e3e3e3;"/><path d="M182.03,148.267l-56.609,-18.786l51.644,33.747l4.965,-14.961Z"/><path d="M144.663,100.103l56.61,-18.786l-51.645,33.748l-4.965,-14.962Z"/><path d="M410.265,10.058c24.483,-0 44.36,21.707 44.36,48.445c-0,26.737 12.878,48.083 -47.267,45.984c-62,-2.163 -41.453,-19.247 -41.453,-45.984c-0,-26.738 19.877,-48.445 44.36,-48.445Z" style="fill:#e3e3e3;"/><clipPath id="_clip1"><path d="M410.265,10.058c24.483,-0 44.36,21.707 44.36,48.445c-0,26.737 12.878,48.083 -47.267,45.984c-62,-2.163 -41.453,-19.247 -41.453,-45.984c-0,-26.738 19.877,-48.445 44.36,-48.445Z"/></clipPath><g clip-path="url(#_clip1)"><path d="M411.92,-43.171c21.712,-0 72.323,63.832 38.229,79.092c-29.14,13.042 -39.884,28.858 -39.884,28.858c-0,0 -8.655,-22.042 -44.36,-27.936c-35.808,-5.91 24.303,-80.014 46.015,-80.014Z" style="fill:#666;"/></g><path d="M410.265,10.058c24.483,-0 44.36,21.707 44.36,48.445c-0,26.737 12.878,48.083 -47.267,45.984c-62,-2.163 -41.453,-19.247 -41.453,-45.984c-0,-26.738 19.877,-48.445 44.36,-48.445Z" style="fill:none;stroke:#000;stroke-width:8.33px;"/><path d="M294.67,9.485c22.964,0 41.609,20.361 41.609,45.44c-0,25.079 12.079,45.101 -44.335,43.132c-58.154,-2.029 -38.882,-18.053 -38.882,-43.132c-0,-25.079 18.644,-45.44 41.608,-45.44Z" style="fill:#e3e3e3;"/><clipPath id="_clip2"><path d="M294.67,9.485c22.964,0 41.609,20.361 41.609,45.44c-0,25.079 12.079,45.101 -44.335,43.132c-58.154,-2.029 -38.882,-18.053 -38.882,-43.132c-0,-25.079 18.644,-45.44 41.608,-45.44Z"/></clipPath><g clip-path="url(#_clip2)"><path d="M293.626,-3.497c20.365,-0 67.837,67.549 35.858,83.698c-27.333,13.802 -37.41,30.539 -37.41,30.539c-0,-0 -8.118,-23.326 -41.608,-29.563c-33.587,-6.254 22.795,-84.674 43.16,-84.674Z" style="fill:#666;"/></g><path d="M294.67,9.485c22.964,0 41.609,20.361 41.609,45.44c-0,25.079 12.079,45.101 -44.335,43.132c-58.154,-2.029 -38.882,-18.053 -38.882,-43.132c-0,-25.079 18.644,-45.44 41.608,-45.44Z" style="fill:none;stroke:#000;stroke-width:8.33px;"/><ellipse cx="46.939" cy="125.068" rx="8.308" ry="7.15"/><ellipse cx="81.701" cy="125.068" rx="8.308" ry="7.15"/><path d="M82.555,27.248l-0,-4.244l-67.155,-0l-0.886,48.457c9.695,2.474 22.92,5.122 33.643,4.666c9.05,-0.385 20.707,-1.165 33.217,-4.666l1.6,-30.248c-0,-0 6.08,-0.06 8.713,-0.06c2.632,-0 7.376,-0.481 7.376,-0.481l3.269,30.789c0,-0 20.676,3.655 30.836,3.655c10.04,-0 30.121,-3.655 30.121,-3.655l2.214,-48.457l-67.156,-0l0,4.244l-15.792,0Z" style="fill:url(#_Linear3);stroke:#000;stroke-width:8.33px;"/><path d="M46.939,158.414l49.545,3.656l-34.421,-29.852l-15.124,26.196Z" style="fill:#ffb800;"/><path d="M96.495,435.232l-0,12.149l-31.46,15.84l-37.29,-0l-21.093,19.865l106.952,1.508l11.363,-37.213" style="fill:#ffb800;stroke:#000;stroke-width:8.33px;"/><path d="M193.844,410.652l9.3,11.948l31.46,15.839l37.29,0l21.093,19.866l-106.952,1.507l-13.067,-31.296" style="fill:#ffb800;stroke:#000;stroke-width:8.33px;"/><path d="M61.962,110.446c-2.021,-1.215 -11.032,-7.486 -22.588,-5.392c-11.556,2.094 -17.794,11.129 -19.26,12.975c-1.22,1.537 7.523,-0.669 10.462,-1.895c3.348,-1.398 3.852,-5.441 9.63,-6.488c5.778,-1.047 7.668,2.563 11.294,2.696c3.181,0.117 12.143,-0.885 10.462,-1.896Z"/><path d="M65.723,107.927c2.148,-0.972 11.826,-6.156 23.061,-2.735c11.235,3.421 16.382,13.118 17.624,15.122c1.034,1.668 -7.395,-1.538 -10.171,-3.097c-3.164,-1.776 -3.195,-5.85 -8.812,-7.561c-5.617,-1.71 -7.914,1.656 -11.531,1.368c-3.173,-0.253 -11.958,-2.289 -10.171,-3.097Z"/><defs><linearGradient id="_Linear3" x1="0" y1="0" x2="1" y2="0" gradientUnits="userSpaceOnUse" gradientTransform="matrix(150.988,0,0,53.1748,14.5142,49.591)"><stop offset="0" style="stop-color:#45a2ed;stop-opacity:1"/><stop offset="1" style="stop-color:#fe0;stop-opacity:1"/></linearGradient></defs></svg>