<?xml version="1.0" encoding="UTF-8" standalone="no"?><!DOCTYPE svg PUBLIC "-//W3C//DTD SVG 1.1//EN" "http://www.w3.org/Graphics/SVG/1.1/DTD/svg11.dtd"><svg width="100%" height="100%" viewBox="0 0 938 938" version="1.1" xmlns="http://www.w3.org/2000/svg" xmlns:xlink="http://www.w3.org/1999/xlink" xml:space="preserve" xmlns:serif="http://www.serif.com/" style="fill-rule:evenodd;clip-rule:evenodd;stroke-linecap:round;stroke-linejoin:round;stroke-miterlimit:1.5;"><g id="Layer3"><path d="M773.438,644.531c-0,-6.468 -5.251,-11.719 -11.719,-11.719l-23.438,0c-6.468,0 -11.718,5.251 -11.718,11.719l-0,117.188c-0,6.468 5.25,11.718 11.718,11.718l23.438,0c6.468,0 11.719,-5.25 11.719,-11.718l-0,-117.188Z" style="fill:#666;stroke:#000;stroke-width:4.17px;"/><path d="M687.5,644.531c0,-6.468 -5.251,-11.719 -11.719,-11.719l-23.437,0c-6.468,0 -11.719,5.251 -11.719,11.719l0,117.188c0,6.468 5.251,11.718 11.719,11.718l23.437,0c6.468,0 11.719,-5.25 11.719,-11.718l0,-117.188Z" style="fill:#666;stroke:#000;stroke-width:4.17px;"/><path d="M622.358,487.954c9.575,-2.069 -1.624,-10.218 -1.548,-19.836l0.32,-40.755c0.088,-11.247 -9.572,-20.445 -21.559,-20.528l-84.564,-0.584c-11.986,-0.083 -21.79,8.98 -21.878,20.227l-0.32,40.755c-0.075,9.619 -11.401,17.612 -1.86,19.813c-11.987,-0.083 -21.79,8.981 -21.878,20.227l-0.32,40.756c-0.089,11.246 9.571,20.445 21.558,20.528l131.409,0.908c11.987,0.083 21.79,-8.981 21.879,-20.228l0.32,-40.755c0.088,-11.247 -9.572,-20.445 -21.559,-20.528Z" style="fill:#a29f6a;stroke:#000;stroke-width:4.17px;"/><path d="M168.51,544.041c-9.558,2.135 1.705,10.206 1.705,19.824l-0,40.757c-0,11.247 9.732,20.378 21.719,20.378l84.566,0c11.987,0 21.719,-9.131 21.719,-20.378l-0,-40.757c-0,-9.618 11.263,-17.689 1.704,-19.824c11.987,-0 21.719,-9.132 21.719,-20.379l0,-40.756c0,-11.247 -9.732,-20.378 -21.719,-20.378l-131.413,-0c-11.987,-0 -21.719,9.131 -21.719,20.378l0,40.756c0,11.247 9.732,20.379 21.719,20.379Z" style="fill:#a29f6a;stroke:#000;stroke-width:4.17px;"/><path d="M188.353,544.027c-6.672,2.026 1.19,9.687 1.19,18.817l-0,38.685c-0,10.676 6.793,19.343 15.16,19.343l59.028,0c8.367,0 15.16,-8.667 15.16,-19.343l-0,-38.685c-0,-9.13 7.861,-16.791 1.189,-18.817c8.368,-0 15.16,-8.668 15.16,-19.343l0,-38.686c0,-10.675 -6.792,-19.343 -15.16,-19.343l-91.727,0c-8.367,0 -15.16,8.668 -15.16,19.343l0,38.686c0,10.675 6.793,19.343 15.16,19.343Z" style="fill:#7c0923;fill-opacity:0.84;"/><path d="M193.478,550.213c-6.069,1.316 1.082,6.287 1.082,12.213l0,25.106c0,6.929 6.18,12.553 13.791,12.553l53.696,0c7.611,0 13.791,-5.624 13.791,-12.553l-0,-25.106c-0,-5.926 7.151,-10.897 1.082,-12.213c7.611,0 13.791,-5.625 13.791,-12.553l-0,-25.107c-0,-6.928 -6.18,-12.553 -13.791,-12.553l-83.442,0c-7.611,0 -13.791,5.625 -13.791,12.553l0,25.107c0,6.928 6.18,12.553 13.791,12.553Z" style="fill:#404040;fill-opacity:0.84;"/><g><path d="M89.287,488.152c10.097,-0 11.167,9.427 16.751,22.923c5.303,12.814 4.807,19.396 -5.29,19.396c-10.097,0 -22.923,-7.732 -22.923,-21.6c0,-13.868 1.365,-20.719 11.462,-20.719Z" style="fill:#a29f6a;stroke:#000;stroke-width:4.17px;"/><path d="M71.654,482.862c16.544,-0 29.976,15.012 29.976,33.503c-0,12.39 -3.386,43.185 -12.343,52.899c-4.41,4.783 -12.175,-6.171 -17.633,-6.171c-16.545,-0 -29.977,-28.237 -29.977,-46.728c0,-18.491 13.432,-33.503 29.977,-33.503Z" style="fill:#a29f6a;stroke:#000;stroke-width:4.17px;"/><path d="M66.238,488.403c12.03,-0 5.955,11.301 13.469,26.449c1.378,2.778 8.347,14.466 10.485,20.928c1.733,5.237 2.376,22.459 0.977,26.682c-1.707,5.15 -5.05,4.768 -7.054,1.916c-1.615,-2.3 -5.153,-11.676 -8.539,-14.259c-3.106,-2.371 -6.084,1.877 -7.33,3.31c-10.286,11.828 -23.805,-24.476 -23.805,-38.897c-0,-14.421 9.767,-26.129 21.797,-26.129Z" style="fill:#191919;fill-opacity:0.35;"/></g><g><path d="M361.239,488.152c-10.096,-0 -11.167,9.427 -16.751,22.923c-5.302,12.814 -4.807,19.396 5.29,19.396c10.097,0 22.923,-7.732 22.923,-21.6c-0,-13.868 -1.365,-20.719 -11.462,-20.719Z" style="fill:#a29f6a;stroke:#000;stroke-width:4.17px;"/><path d="M378.873,482.862c-16.545,-0 -29.977,15.012 -29.977,33.503c0,12.39 3.386,43.185 12.343,52.899c4.411,4.783 12.175,-6.171 17.634,-6.171c16.544,-0 29.976,-28.237 29.976,-46.728c-0,-18.491 -13.432,-33.503 -29.976,-33.503Z" style="fill:#a29f6a;stroke:#000;stroke-width:4.17px;"/><path d="M384.288,488.403c-12.03,-0 -5.955,11.301 -13.469,26.449c-1.378,2.778 -8.347,14.466 -10.485,20.928c-1.733,5.237 -2.376,22.459 -0.976,26.682c1.706,5.15 5.05,4.768 7.053,1.916c1.615,-2.3 5.153,-11.676 8.539,-14.259c3.106,-2.371 6.084,1.877 7.331,3.31c10.285,11.828 23.804,-24.476 23.804,-38.897c0,-14.421 -9.767,-26.129 -21.797,-26.129Z" style="fill:#191919;fill-opacity:0.35;"/></g><g><path d="M428.184,418.489l-0.038,-16.857l-15.126,0.03l0.038,16.857l15.126,-0.03Z" style="fill:#cacaca;fill-opacity:0.84;stroke:#000;stroke-width:4.17px;"/><path d="M417.386,442.121l-0.098,-43.649l-8.211,0.016l0.098,43.649l8.211,-0.016Z" style="fill:#404040;fill-opacity:0.84;stroke:#000;stroke-width:4.17px;"/><path d="M434.673,442.087l-0.098,-43.649l-8.643,0.017l0.098,43.649l8.643,-0.017Z" style="fill:#cacaca;fill-opacity:0.84;stroke:#000;stroke-width:4.17px;"/><path d="M426.03,442.104l-0.098,-43.649l-7.347,0.014l0.098,43.65l7.347,-0.015Z" style="fill:#0098ff;fill-opacity:0.84;stroke:#000;stroke-width:4.17px;"/><path d="M426.003,409.563c0.006,2.912 -2.506,5.282 -5.607,5.288c-3.1,0.006 -5.623,-2.353 -5.63,-5.266c-0.006,-2.913 2.506,-5.282 5.607,-5.288c3.1,-0.007 5.623,2.353 5.63,5.266Z" style="fill:#2f4ec0;"/><path d="M421.467,405.106c0,0 1.421,2.241 0.372,2.907c-1.625,1.033 -2.133,2.606 -4.044,3.19c-1.242,0.379 0.072,-1.702 1.29,-2.844c1.218,-1.143 -2.849,-2.452 -0.872,-3.394c2.304,-1.097 3.254,0.141 3.254,0.141Z" style="fill:#44ef00;"/><path d="M422.241,414.442c0,-0 -0.987,-3.203 0.898,-6.903c1.065,-2.092 -2.445,1.674 -1.885,4.469c0.401,1.998 0.987,2.434 0.987,2.434Z" style="fill:#fff;"/></g><path d="M790.927,557.301c-3.935,2.335 -6.053,30.676 -6.053,35.724c0,7.485 5.839,13.562 13.03,13.562c100.285,4.973 100.635,4.199 117.32,4.199c7.192,0 6.641,-10.276 6.641,-17.761l0,-27.123c0,-7.485 -5.838,-13.562 -13.03,-13.562l-55.46,10.85l-0.005,-62.707c-0,-8.89 -6.935,-16.108 -15.476,-16.108l-30.953,-0c-8.541,-0 -15.476,7.218 -15.476,16.108l-0.538,56.818Z" style="fill:#461a0a;stroke:#000;stroke-width:4.17px;"/><path d="M793.079,562.054c-3.092,1.92 -5.178,5.543 -5.178,9.693l-0,22.299c-0,6.154 10.893,10.45 16.543,10.45c80.475,0 71.691,1.608 98.898,4.189c11.006,1.043 15.507,-14.215 15.507,-20.369l-0,-20.369c-0,-6.153 -17.142,-10.67 -22.793,-10.67l-26.137,31.039l-33.761,-6.308c0,-7.309 -26.981,-14.061 -33.693,-14.061l2.773,-63.227c-6.711,-0 -12.159,5.934 -12.159,13.243l-0,44.091Z" style="fill:#240b02;"/><path d="M912.198,399.596c3.935,2.335 6.053,30.676 6.053,35.724c-0,7.485 -5.839,13.562 -13.03,13.562c-100.285,4.973 -100.635,4.2 -117.32,4.2c-7.192,-0 -6.641,-10.277 -6.641,-17.762l-0,-27.123c-0,-7.485 5.838,-13.562 13.03,-13.562l55.46,10.85l0.005,-62.707c0,-8.89 6.935,-16.108 15.476,-16.108l30.953,0c8.541,0 15.476,7.218 15.476,16.108l0.538,56.818Z" style="fill:#461a0a;stroke:#000;stroke-width:4.17px;"/><path d="M910.046,404.349c3.092,1.92 5.178,5.543 5.178,9.693l0,22.299c0,6.154 -10.893,10.45 -16.543,10.45c-80.475,0 -71.691,1.608 -98.898,4.189c-11.006,1.043 -15.507,-14.215 -15.507,-20.369l0,-20.369c0,-6.153 17.142,-10.67 22.793,-10.67l26.137,31.039l33.761,-6.308c-0,-7.309 26.981,-14.061 33.693,-14.061l-2.773,-63.227c6.711,-0 12.159,5.934 12.159,13.243l0,44.091Z" style="fill:#240b02;"/><path d="M773.438,671.709c-0,-18.165 -14.748,-32.912 -32.913,-32.912l-66.988,-0c-18.165,-0 -32.912,14.747 -32.912,32.912l0,65.824c0,18.165 14.747,32.912 32.912,32.912l66.988,0c18.165,0 32.912,-14.747 32.912,-32.912l0,-65.824Z" style="fill:#666;stroke:#000;stroke-width:4.17px;"/><path d="M765.625,671.085c-0,-16.169 -13.127,-29.296 -29.297,-29.296l-58.594,-0c-16.169,-0 -29.297,13.127 -29.297,29.296l0,70.064c0,16.169 13.128,29.296 29.297,29.296l58.594,0c16.17,0 29.297,-13.127 29.297,-29.296l-0,-70.064Z" style="fill:#129ee5;stroke:#000;stroke-width:4.17px;"/><path d="M781.25,745.761c0,-4.541 -3.687,-8.228 -8.228,-8.228l-131.981,0c-4.542,0 -8.229,3.687 -8.229,8.228l0,16.456c0,4.542 3.687,8.228 8.229,8.228l131.981,0c4.541,0 8.228,-3.686 8.228,-8.228l0,-16.456Z" style="fill:#666;stroke:#000;stroke-width:4.17px;"/><path d="M753.906,670.401c0,-10.734 -8.714,-19.448 -19.448,-19.448l-54.854,-0c-10.733,-0 -19.448,8.714 -19.448,19.448l0,38.896c0,10.734 8.715,19.448 19.448,19.448l54.854,0c10.734,0 19.448,-8.714 19.448,-19.448l0,-38.896Z" style="fill:#303832;stroke:#000;stroke-width:4.17px;"/><path d="M734.375,674.701c0,-4.954 -4.022,-8.976 -8.976,-8.976l-36.735,-0c-4.954,-0 -8.976,4.022 -8.976,8.976l-0,17.952c-0,4.954 4.022,8.976 8.976,8.976l36.735,-0c4.954,-0 8.976,-4.022 8.976,-8.976l0,-17.952Z" style="fill:#00ff45;stroke:#000;stroke-width:4.17px;"/><path d="M734.91,653.06c15.53,7.342 25.522,16.542 22.298,20.533c-3.223,3.99 -13.425,-9.163 -28.955,-16.504c-15.53,-7.341 -30.546,-6.108 -27.323,-10.099c3.224,-3.991 18.45,-1.271 33.98,6.07Z" style="fill:#fff;"/><path d="M272.858,718.75l-77.282,-26.203l-0,26.203c2.482,-9.643 27.835,-9.83 77.282,0Z" style="fill:#ff4f89;stroke:#000;stroke-width:4.17px;"/><path d="M70.734,718.75l77.282,-26.203l0,26.203c-2.482,-9.643 -27.835,-9.83 -77.282,0Z" style="fill:#ff4f89;stroke:#000;stroke-width:4.17px;"/></g><g id="Layer1"><path d="M615.32,141.396c56.054,0 101.563,47.28 101.563,105.515c-0,58.235 -85.325,100.104 -99.751,100.104c-14.426,-0 -103.374,-41.869 -103.374,-100.104c-0,-58.235 45.509,-105.515 101.562,-105.515Z" style="fill:#ffa793;stroke:#000;stroke-width:4.17px;"/><path d="M351.589,849.408c17.262,0 31.276,11.568 31.276,25.816c0,14.248 -14.315,15.401 -31.577,15.401c-17.262,-0 -30.976,-1.153 -30.976,-15.401c0,-14.248 14.015,-25.816 31.277,-25.816Z" style="fill:#fff;stroke:#000;stroke-width:4.17px;"/><path d="M429.661,850.029c17.262,0 31.276,11.568 31.276,25.816c0,14.248 -10.704,14.78 -27.965,14.78c-17.262,-0 -34.587,-0.532 -34.587,-14.78c-0,-14.248 14.014,-25.816 31.276,-25.816Z" style="fill:#fff;stroke:#000;stroke-width:4.17px;"/><ellipse cx="433.446" cy="813.737" rx="11.571" ry="14.388" style="fill:#080100;stroke:#000;stroke-width:4.17px;"/><ellipse cx="351.589" cy="813.737" rx="11.571" ry="14.388" style="fill:#080100;stroke:#000;stroke-width:4.17px;"/><path d="M448.937,765.625l-109.375,-31.25l-0,31.25l109.375,0Z" style="fill:#fff;"/><path d="M609.375,33.866l20.337,51.145l39.19,-15.805l-6.284,35.341l65.812,-0l-53.243,31.609l30.505,25.573l-43.074,6.037l20.337,51.145l-53.243,-31.609l-20.337,31.609l-20.337,-31.609l-53.243,31.609l20.337,-51.145l-43.074,-6.037l30.505,-25.573l-53.243,-31.609l65.812,-0l-6.284,-35.341l39.19,15.805l20.337,-51.145Z" style="fill:#ff4f89;"/></g><g id="Layer2"><path d="M215.283,15.626c101.313,0.289 183.357,73.769 183.1,163.988c-0.258,90.218 -82.72,163.229 -184.033,162.94c-101.312,-0.289 -183.357,-73.769 -183.099,-163.988c0.257,-90.218 82.719,-163.229 184.032,-162.94Z" style="fill:#00e4ff;fill-opacity:0.34;stroke:#000;stroke-width:4.17px;"/><path d="M354.24,144.629c2.337,34.742 -17.375,64.166 -43.991,65.666c-26.615,1.499 11.326,-34.481 8.99,-69.223c-2.336,-34.742 -44.071,-55.175 -17.456,-56.674c26.616,-1.5 50.121,25.489 52.457,60.231Z" style="fill:#fff;"/></g></svg>