<?xml version="1.0" encoding="UTF-8" standalone="no"?><!DOCTYPE svg PUBLIC "-//W3C//DTD SVG 1.1//EN" "http://www.w3.org/Graphics/SVG/1.1/DTD/svg11.dtd"><svg width="100%" height="100%" viewBox="0 0 267 267" version="1.1" xmlns="http://www.w3.org/2000/svg" xmlns:xlink="http://www.w3.org/1999/xlink" xml:space="preserve" xmlns:serif="http://www.serif.com/" style="fill-rule:evenodd;clip-rule:evenodd;stroke-linejoin:round;stroke-miterlimit:2;"><path d="M77.434,86.176c26.446,-0 27.196,18.751 27.083,52.467c-0.228,68.59 -6.38,37.643 -29.166,38.218c-26.434,0.667 -25.508,26.923 -29.167,-31.894c-2.095,-33.671 4.804,-58.791 31.25,-58.791Z" style="fill:#292020;"/><path d="M179.264,208.333c28.161,0 29.189,4.891 29.069,24.053c-0.244,38.983 -6.794,21.394 -31.059,21.721c-28.149,0.379 -27.163,15.301 -31.059,-18.127c-2.231,-19.137 4.887,-27.647 33.049,-27.647Z" style="fill:#0a269c;"/><path d="M58.333,255.856c0,-8.534 28.872,-11.605 37.882,0c5.366,6.911 -8.487,6.409 -18.941,6.409c-10.453,0 -18.941,2.125 -18.941,-6.409Z" style="fill:#404040;"/><path d="M143.243,255.856c-0,-8.534 -25.793,-11.605 -33.843,0c-4.793,6.911 7.582,6.409 16.922,6.409c9.339,0 16.921,2.125 16.921,-6.409Z" style="fill:#404040;"/><path d="M24.776,257.555c-14.643,-2.981 -12.932,-38.348 9.16,-44.997c13.156,-3.96 8.945,12.32 6.417,24.737c-2.527,12.417 -0.935,23.24 -15.577,20.26Z" style="fill:#0a269c;"/><path d="M30.68,62.574c19.219,8.27 8.263,13.392 4.004,43.496c-1.507,10.656 -17.291,9.173 -14.126,-2.636c3.164,-11.81 5.974,-42.644 10.122,-40.86Z" style="fill:#404040;"/><path d="M163.166,41.813c-17.461,11.527 -5.774,14.638 3.724,43.521c3.362,10.223 18.637,5.982 13.441,-5.085c-5.196,-11.067 -13.397,-40.923 -17.165,-38.436Z" style="fill:#404040;"/><path d="M36.727,131.834c14.309,15.114 3.727,13.216 -7.318,31.679c-3.91,6.535 -16.969,-2.252 -11.366,-8.759c5.604,-6.507 15.596,-26.181 18.684,-22.92Z" style="fill:#404040;"/><path d="M153.182,108.941c-17.439,11.36 -6.707,11.982 -0.273,32.512c2.277,7.266 17.026,1.768 13.095,-5.866c-3.931,-7.635 -9.058,-29.097 -12.822,-26.646Z" style="fill:#404040;"/><path d="M16.346,196.698c-4.294,-12.443 8.161,-11.108 22.753,-11.47c5.164,-0.128 1.816,17.126 -3.663,15.658c-5.478,-1.468 -12.177,15.843 -19.09,-4.188Z" style="fill:#404040;"/><path d="M196.577,162.223c13.08,-1.473 6.52,-12.145 0.573,-25.474c-2.105,-4.718 -16.243,5.723 -12.562,10.038c3.681,4.316 -9.069,17.807 11.989,15.436Z" style="fill:#404040;"/><path d="M73.471,239.396c14.703,-2.665 13.753,-38.061 -8.191,-45.183c-13.068,-4.241 -9.208,12.125 -6.947,24.593c2.26,12.469 0.435,23.256 15.138,20.59Z" style="fill:#0a269c;"/><path d="M108.333,18.75c0,-9.199 -7.468,-16.667 -16.666,-16.667l-33.334,0c-9.198,0 -16.666,7.468 -16.666,16.667l-0,45.833c-0,9.199 7.468,16.667 16.666,16.667l33.334,0c9.198,0 16.666,-7.468 16.666,-16.667l0,-45.833Z" style="fill:#404040;"/><path d="M254.167,15.839c-0,-5.174 -4.201,-9.375 -9.375,-9.375l-18.75,-0c-5.175,-0 -9.375,4.201 -9.375,9.375l-0,37.286c-0,5.174 4.2,9.375 9.375,9.375l18.75,-0c5.174,-0 9.375,-4.201 9.375,-9.375l-0,-37.286Z" style="fill:#281d1d;"/><path d="M235.417,43.75l16.666,-29.167l-33.333,0l16.667,29.167Z" style="fill:#9f0000;"/><path d="M235.417,27.083l16.666,29.167l-33.333,0l16.667,-29.167Z" style="fill:#9f0000;"/><rect x="233.333" y="85.799" width="4.167" height="160.034" style="fill:#292020;"/><rect x="237.5" y="191.667" width="10.778" height="16.667" style="fill:#292020;"/><path d="M235.417,71.489l6.25,16.011l-12.5,0l6.25,-16.011Z" style="fill:#292020;"/><rect x="147.745" y="208.333" width="58.692" height="8.333" style="fill:#a39600;"/><path d="M235.417,216.667c5.106,-0 9.251,9.335 9.251,20.833c0,11.498 -4.145,20.833 -9.251,20.833c-5.106,0 -9.252,-9.335 -9.252,-20.833c-0,-11.498 4.146,-20.833 9.252,-20.833Zm-0,8.333c3.449,-0 6.25,4.668 6.25,10.417c-0,5.749 -2.801,10.416 -6.25,10.416c-3.45,0 -6.25,-4.667 -6.25,-10.416c-0,-5.749 2.8,-10.417 6.25,-10.417Z" style="fill:#281d1d;"/></svg>