<?xml version="1.0" encoding="UTF-8" standalone="no"?><!DOCTYPE svg PUBLIC "-//W3C//DTD SVG 1.1//EN" "http://www.w3.org/Graphics/SVG/1.1/DTD/svg11.dtd"><svg width="100%" height="100%" viewBox="0 0 500 500" version="1.1" xmlns="http://www.w3.org/2000/svg" xmlns:xlink="http://www.w3.org/1999/xlink" xml:space="preserve" xmlns:serif="http://www.serif.com/" style="fill-rule:evenodd;clip-rule:evenodd;stroke-linecap:round;stroke-linejoin:round;stroke-miterlimit:1.5;"><path d="M311.421,100c-0.076,-38.422 43.579,-60 43.579,-60c0,0 14.985,53.149 -32.167,82.51c-26.975,16.797 8.471,75.477 -14.559,70.612c-23.031,-4.865 3.21,-61.345 3.147,-93.122Z" style="fill:#7c899e;stroke:#000;stroke-width:4.17px;"/><path d="M315.225,102.723c1.568,-34.725 27.825,-51.031 27.825,-51.031c-0,0 8.44,47.407 -26.417,75.936c-19.941,16.32 2.854,67.863 -13.361,64.437c-16.214,-3.425 10.656,-60.623 11.953,-89.342Z" style="fill:#5f6774;fill-opacity:0.91;"/><path d="M301.01,139.538c2.828,-27.837 14.097,-23.032 14.097,-23.032c0,-0 31.624,15.387 9.886,18.493c-26.956,3.85 7.024,60.794 -13.01,58.759c-20.034,-2.036 -13.801,-26.382 -10.973,-54.22Z" style="fill:#3b65aa;stroke:#000;stroke-width:4.17px;"/><path d="M346.836,85.835c4.044,-15.683 3.058,-43.664 3.058,-43.664c0,-0 -1.273,20.937 -6.185,41.038c-3.197,13.086 -9.847,22.747 -7.599,24.439c1.967,1.48 6.681,-6.13 10.726,-21.813Z" style="fill:#e4eeff;fill-opacity:0.92;"/><path d="M338.446,79.698c-6.436,13.158 -23.446,31.871 -23.446,31.871c0,-0 11.373,-15.17 19.806,-31.878c5.49,-10.876 6.653,-21.398 9.156,-21.258c2.19,0.122 0.921,8.106 -5.516,21.265Z" style="fill:#404040;fill-opacity:0.92;"/><path d="M307.616,170c4.203,0 7.616,3.361 7.616,7.5c0,4.139 -3.413,7.5 -7.616,7.5c-4.203,0 -7.616,-3.361 -7.616,-7.5c0,-4.139 3.413,-7.5 7.616,-7.5Zm0,3.75c2.102,0 3.808,1.68 3.808,3.75c0,2.07 -1.706,3.75 -3.808,3.75c-2.102,0 -3.808,-1.68 -3.808,-3.75c0,-2.07 1.706,-3.75 3.808,-3.75Z" style="fill:#fff;"/><path d="M309.248,154.23c2.867,0.83 4.509,3.87 3.666,6.783c-0.844,2.914 -3.856,4.606 -6.722,3.776c-2.867,-0.83 -4.509,-3.869 -3.666,-6.783c0.844,-2.914 3.856,-4.606 6.722,-3.776Zm-0.764,2.64c1.433,0.415 2.255,1.935 1.833,3.392c-0.422,1.456 -1.928,2.302 -3.361,1.887c-1.433,-0.415 -2.255,-1.934 -1.833,-3.391c0.422,-1.457 1.928,-2.303 3.361,-1.888Z" style="fill:#fff;"/><path d="M315.978,120.54c3.302,0.956 5.104,4.766 4.022,8.503c-1.082,3.738 -4.641,5.996 -7.943,5.04c-3.302,-0.956 -5.105,-4.767 -4.023,-8.504c1.082,-3.737 4.642,-5.995 7.944,-5.039Zm-0.981,3.385c1.651,0.478 2.553,2.384 2.012,4.252c-0.541,1.869 -2.321,2.998 -3.972,2.52c-1.651,-0.478 -2.552,-2.383 -2.011,-4.252c0.541,-1.869 2.32,-2.998 3.971,-2.52Z" style="fill:#fff;"/><g><ellipse cx="88.506" cy="140.5" rx="36.494" ry="9.431" style="fill:#ebebeb;stroke:#000;stroke-width:4.17px;"/><g><rect x="55" y="36.051" width="69.825" height="103.949" style="fill:#118a12;fill-opacity:0.91;stroke:#000;stroke-width:4.17px;"/><ellipse cx="88.331" cy="36.051" rx="36.494" ry="9.431" style="fill:#118a12;stroke:#000;stroke-width:4.17px;"/><path d="M124.825,99.001c-0,0 -24.213,3.773 -36.319,3.773c-12.165,-0 -36.669,-3.773 -36.669,-3.773l3.163,41.499c-0,-0 2.659,8.319 33.506,9.431c27.995,1.01 36.319,-9.431 36.319,-9.431l-0,-41.499Z" style="fill:#118a12;stroke:#000;stroke-width:4.17px;"/></g><path d="M124.912,40c0,0 -22.806,5.482 -34.912,5.482c-12.165,0 -38.076,-5.482 -38.076,-5.482l3.076,100c0,0 2.746,7.453 33.594,9.852c27.995,2.177 36.406,-9.852 36.406,-9.852l-0.088,-100Z" style="fill:#005f01;stroke:#000;stroke-width:4.17px;"/><path d="M125,66.866c-0,-0 -22.894,3.134 -35,3.134c-12.165,0 -38.163,-3.134 -38.163,-3.134l-0,23.422c-0,-0 5.822,6.708 36.669,7.604c27.995,0.814 36.319,-7.604 36.319,-7.604l0.175,-23.422Z" style="fill:#118a12;stroke:#000;stroke-width:4.17px;"/><path d="M124.825,66.866c-0,-0 -24.3,3.041 -36.407,3.041c-12.164,0 -36.581,-3.041 -36.581,-3.041l-0,33.46c-0,0 5.822,6.708 36.669,7.605c27.995,0.814 36.319,-7.605 36.319,-7.605l-0,-33.46Z" style="fill:#434343;"/><clipPath id="_clip1"><path d="M124.825,66.866c-0,-0 -24.3,3.041 -36.407,3.041c-12.164,0 -36.581,-3.041 -36.581,-3.041l-0,33.46c-0,0 5.822,6.708 36.669,7.605c27.995,0.814 36.319,-7.605 36.319,-7.605l-0,-33.46Z"/></clipPath><g clip-path="url(#_clip1)"><path d="M124.825,140.5c-0,-0 -38.712,-7.478 -49.825,-5.5c-10.327,1.838 -1.721,-31.517 -20,-35l0,40.5c0,-0 2.659,8.319 33.506,9.431c27.995,1.01 36.319,-9.431 36.319,-9.431Z" style="fill:#154915;"/></g><path d="M124.825,66.866c-0,-0 -24.3,3.041 -36.407,3.041c-12.164,0 -36.581,-3.041 -36.581,-3.041l-0,33.46c-0,0 5.822,6.708 36.669,7.605c27.995,0.814 36.319,-7.605 36.319,-7.605l-0,-33.46Z" style="fill:none;stroke:#000;stroke-width:4.17px;"/></g><path d="M87.299,85.827c8.545,6.197 22.359,9.24 20.736,12.63c-7.61,15.893 -13.78,-3.234 -22.324,-9.431c-8.545,-6.197 -22.858,-6.272 -13.96,-16.057c7.775,-8.55 7.004,6.662 15.548,12.858Z"/><path d="M90.716,87.038c-8.661,6.022 -16.384,18.274 -18.849,15.482c-11.558,-13.089 7.883,-12.15 16.543,-18.172c8.661,-6.021 13.893,-19.827 19.489,-7.696c4.889,10.599 -8.523,4.364 -17.183,10.386Z"/><path d="M88.331,76.504c6.288,-0 11.86,4.208 11.86,9.838c0,5.63 -11.773,16.922 -11.773,16.922c0,-0 -11.772,-11.292 -11.772,-16.922c-0,-5.63 5.397,-9.838 11.685,-9.838Z" style="fill:#434343;stroke:#000;stroke-width:4.17px;"/><path d="M83.204,83.79c1.258,0 2.279,0.762 2.279,1.701c-0,0.938 -1.021,3.157 -2.279,3.157c-1.258,0 -2.279,-2.219 -2.279,-3.157c0,-0.939 1.021,-1.701 2.279,-1.701Z" style="stroke:#000;stroke-width:4.17px;"/><path d="M86.479,91.563c0.236,-0 0.428,0.228 0.428,0.51c-0,0.281 -0.192,0.947 -0.428,0.947c-0.235,0 -0.427,-0.666 -0.427,-0.947c0,-0.282 0.192,-0.51 0.427,-0.51Z"/><path d="M90.182,91.563c0.236,-0 0.427,0.228 0.427,0.51c0,0.281 -0.191,0.947 -0.427,0.947c-0.236,0 -0.427,-0.666 -0.427,-0.947c-0,-0.282 0.191,-0.51 0.427,-0.51Z"/><path d="M50.215,332.309l-38.352,60.959l51.798,-41.059l66.339,-3.096l-79.785,-16.804Z" style="fill:#600700;stroke:#000;stroke-width:4.17px;"/><path d="M102.199,284.215l31.106,57.79l-47.037,-41.175l-66.268,-8.516l82.199,-8.099Z" style="fill:#600700;stroke:#000;stroke-width:4.17px;"/><path d="M93.742,84.033c1.258,0 2.279,0.762 2.279,1.7c0,0.939 -1.021,3.158 -2.279,3.158c-1.257,-0 -2.278,-2.219 -2.278,-3.158c-0,-0.938 1.021,-1.7 2.278,-1.7Z" style="stroke:#000;stroke-width:4.17px;"/><g><path d="M135,208.775c8.279,-0 15,5.808 15,12.961c-0,7.154 -5.986,18.264 -14.264,18.264c-8.279,-0 -15.736,-11.11 -15.736,-18.264c-0,-7.153 6.721,-12.961 15,-12.961Z" style="fill:#434343;stroke:#000;stroke-width:4.17px;"/><path d="M58.264,267.223c-11.322,-0.49 -8.875,10.802 -8.875,-21.098c0,-31.9 7.551,1.031 18.874,1.522c11.322,0.49 20.876,-34.865 20.876,-2.965c0,31.9 4.447,24.031 -6.875,23.541" style="fill:#600700;stroke:#000;stroke-width:4.17px;"/><path d="M132.264,254.137c1.656,-0 3,0.968 3,2.16c0,1.192 -1.344,4.012 -3,4.012c-1.656,-0 -3,-2.82 -3,-4.012c0,-1.192 1.344,-2.16 3,-2.16Z" style="stroke:#000;stroke-width:4.17px;"/><path d="M136.577,264.012c0.31,-0 0.562,0.29 0.562,0.648c0,0.358 -0.252,1.203 -0.562,1.203c-0.311,0 -0.563,-0.845 -0.563,-1.203c0,-0.358 0.252,-0.648 0.563,-0.648Z"/><path d="M141.452,264.012c0.31,-0 0.562,0.29 0.562,0.648c0,0.358 -0.252,1.203 -0.562,1.203c-0.311,0 -0.563,-0.845 -0.563,-1.203c0,-0.358 0.252,-0.648 0.563,-0.648Z"/><path d="M146.139,254.445c1.656,0 3,0.968 3,2.16c0,1.193 -1.344,4.012 -3,4.012c-1.656,0 -3,-2.819 -3,-4.012c0,-1.192 1.344,-2.16 3,-2.16Z" style="stroke:#000;stroke-width:4.17px;"/></g><path d="M488.022,328.977c-0.127,10.072 -25.532,17.928 -56.697,17.534c-31.164,-0.395 -79.475,-8.29 -79.348,-18.362c0.128,-10.071 48.646,-18.53 79.811,-18.136c31.164,0.395 56.362,8.892 56.234,18.964Z" style="fill:#ff1200;stroke:#000;stroke-width:4.17px;"/><path d="M483.08,328.752c-0.101,7.973 -17.494,14.228 -38.816,13.957c-21.322,-0.27 -64.264,-14.447 -64.264,-14.447c0,0 43.308,-14.717 64.63,-14.447c21.322,0.27 38.551,6.963 38.45,14.937Z" style="fill:#ffa147;"/><path d="M178.913,451.249c2.159,-0.954 -2.75,-2.376 -1.541,-5.779c2.381,-6.703 -2.059,-6.254 -4.218,-5.299c-2.159,0.954 -2.621,4.212 -1.032,7.269c1.59,3.057 4.633,4.764 6.791,3.809Z" style="fill:#5b5e67;"/><path d="M176.234,439.447c5.412,-0.902 10.69,2.876 11.546,7.245c0.856,4.368 -2.409,6.483 -6.174,8.207c-4.925,2.256 -12.769,-1.533 -13.625,-5.902c-0.856,-4.368 2.842,-8.648 8.253,-9.55Zm0.776,3.958c2.706,-0.451 5.481,1.913 5.91,4.097c0.428,2.184 -1.653,3.367 -4.358,3.818c-2.706,0.451 -5.251,-0.956 -5.679,-3.14c-0.428,-2.184 1.421,-4.324 4.127,-4.775Z" style="fill:#5b5e67;"/><path d="M264.88,415.628l-97.022,0.135l-2.217,30.821l48.166,-2.648l7.658,-13.878l43.415,-0l-0,-14.43Z" style="fill:#5b5e67;stroke:#000;stroke-width:4.17px;"/><path d="M137.406,416.76l-9.258,-6.76l12.392,25.471l2.792,-11.647l2.969,-3.986l-0,-6.637l-8.895,3.559Z" style="fill:#5b5e67;stroke:#000;stroke-width:4.17px;"/><path d="M175.516,433.315c15.262,5.517 -8.443,9.776 -4.018,26.508c8.715,32.949 -11.44,31.661 -21,27.357c-9.56,-4.303 -10.619,-20.465 -2.363,-36.067c8.255,-15.603 17.477,-21.379 27.381,-17.798Z" style="fill:#421509;stroke:#000;stroke-width:4.17px;"/><path d="M209.287,418.007c0,-0 -0.023,4.029 -0.053,8.992c-0.029,4.964 -0.053,8.993 -0.053,8.993c0,0 0.024,-4.029 0.053,-8.993c0.03,-4.963 0.053,-8.992 0.053,-8.992Z" style="fill:#663539;stroke:#000;stroke-width:4.17px;"/><path d="M187.918,417.62c-0,-0 -0.025,4.116 -0.054,9.186c-0.03,5.07 -0.055,9.186 -0.055,9.186c0,0 0.025,-4.116 0.055,-9.186c0.029,-5.07 0.054,-9.186 0.054,-9.186Z" style="fill:#663539;stroke:#000;stroke-width:4.17px;"/><path d="M206.934,431.535l-8.443,0l-8.444,0l8.444,0l8.443,0Z" style="fill:#663539;stroke:#000;stroke-width:4.17px;"/><path d="M206.934,435.992l-8.443,0l-8.444,0l8.444,0l8.443,0Z" style="fill:#663539;stroke:#000;stroke-width:4.17px;"/><path d="M209.181,422.87l-9.567,0l-9.567,0l9.567,0l9.567,0Z" style="fill:#663539;stroke:#000;stroke-width:4.17px;"/><path d="M209.181,418.007l-9.567,-0l-9.567,-0l9.567,-0l9.567,-0Z" style="fill:#663539;stroke:#000;stroke-width:4.17px;"/><path d="M413.282,380l8.29,34.405l31.816,-18.832l-20.091,29.823l36.703,7.772l-36.703,7.772l20.091,29.823l-31.816,-18.833l-8.29,34.406l-8.291,-34.406l-31.815,18.833l20.09,-29.823l-36.703,-7.772l36.703,-7.772l-20.09,-29.823l31.815,18.832l8.291,-34.405Z" style="fill:#d90900;stroke:#000;stroke-width:4.17px;"/><path d="M413.282,404.694l3.888,18.426l14.921,-10.086l-9.422,15.972l17.213,4.162l-17.213,4.162l9.422,15.972l-14.921,-10.086l-3.888,18.426l-3.888,-18.426l-14.921,10.086l9.422,-15.972l-17.213,-4.162l17.213,-4.162l-9.422,-15.972l14.921,10.086l3.888,-18.426Z" style="fill:#ffa147;"/><path d="M368.384,229.818c1.385,-5.524 6.963,-9.818 13.502,-9.818c6.539,0 12.117,4.294 13.503,9.818c5.295,-2.389 12.219,-0.816 16.296,4.165c4.077,4.982 4.109,11.909 0.541,16.408c5.218,2.545 8.273,8.8 6.818,15.012c-1.455,6.212 -6.993,10.556 -12.827,10.643c1.211,5.562 -1.902,11.789 -7.794,14.554c-5.891,2.765 -12.829,1.254 -16.537,-3.137c-3.707,4.391 -10.645,5.902 -16.537,3.137c-5.891,-2.765 -9.005,-8.992 -7.793,-14.554c-5.835,-0.087 -11.373,-4.431 -12.828,-10.643c-1.455,-6.212 1.6,-12.467 6.819,-15.012c-3.569,-4.499 -3.536,-11.426 0.541,-16.408c4.077,-4.981 11,-6.554 16.296,-4.165Z" style="fill:#666;fill-opacity:0.51;"/><path d="M298.977,434.668c1.385,-5.523 6.963,-9.818 13.502,-9.818c6.539,0 12.117,4.295 13.503,9.818c5.295,-2.388 12.219,-0.816 16.296,4.165c4.077,4.982 4.109,11.909 0.541,16.409c5.218,2.545 8.273,8.799 6.818,15.011c-1.455,6.212 -6.993,10.556 -12.827,10.643c1.211,5.562 -1.902,11.79 -7.794,14.554c-5.891,2.765 -12.829,1.254 -16.537,-3.137c-3.707,4.391 -10.645,5.902 -16.537,3.137c-5.891,-2.764 -9.005,-8.992 -7.793,-14.554c-5.835,-0.087 -11.373,-4.431 -12.828,-10.643c-1.455,-6.212 1.6,-12.466 6.819,-15.011c-3.569,-4.5 -3.536,-11.427 0.541,-16.409c4.077,-4.981 11,-6.553 16.296,-4.165Z" style="fill:#666;fill-opacity:0.51;"/><path d="M28.246,440.133c-0,-8.369 14.228,-15.164 31.754,-15.164c17.526,0 31.754,6.795 31.754,15.164c12.83,-0 23.246,9.281 23.246,20.713c0,11.433 -10.416,20.714 -23.246,20.714c0,8.369 -14.228,15.164 -31.754,15.164c-17.526,-0 -31.754,-6.795 -31.754,-15.164c-12.83,0 -23.246,-9.281 -23.246,-20.714c0,-11.432 10.416,-20.713 23.246,-20.713Z" style="fill:#666;fill-opacity:0.51;"/><path d="M232.793,275.221c-19.411,-2.024 -34.554,-18.137 -34.554,-37.688c0,-20.919 17.337,-37.903 38.691,-37.903c21.353,-0 38.69,16.984 38.69,37.903c-0,18.661 -13.797,34.191 -31.934,37.325l-0,7.443l52.486,-10.423l-2.896,13.271l-49.59,7.971l-0,66.51l-10.893,-0l0,-66.86l-52.793,-10.484l-0,-17.472l52.793,17.137l0,-6.73Z" style="fill:#ffa147;stroke:#000;stroke-width:4.17px;"/><path d="M232.793,275.221c-19.411,-2.024 -34.554,-18.137 -34.554,-37.688c0,-20.919 17.337,-37.903 38.691,-37.903c21.353,-0 38.69,16.984 38.69,37.903c-0,18.661 -13.797,34.191 -31.934,37.325l-0,7.443l52.486,-10.423l-2.896,13.271l-49.59,7.971l-0,66.51l-10.893,-0l0,-66.86l-52.793,-10.484l-0,-17.472l52.793,17.137l0,-6.73Z" style="fill:#ffa147;stroke:#000;stroke-width:4.17px;"/><path d="M222.793,103.399c-19.411,-2.023 -34.554,-18.137 -34.554,-37.688c0,-20.919 17.337,-37.902 38.691,-37.902c21.353,-0 40.217,15.621 37.544,36.922c-2.323,18.517 -14.562,32.135 -32.699,35.269l1.911,10.48l52.486,-10.424l-16.172,9.944l-36.314,11.299l-0,66.51l-10.893,-0l0,-66.86l-39.429,-7.621l-11.297,-13.272l50.726,10.074l0,-6.731Z" style="fill:#9d6835;stroke:#000;stroke-width:4.17px;"/><path d="M225.557,100c-15.113,-1.766 -28.049,-9.478 -28.049,-26.538c-0,-18.253 13.498,-33.072 30.124,-33.072c16.626,-0 7.933,17.668 14.249,35.271c3.537,9.857 1.36,14.676 -12.761,17.411l2.655,21.964l41.983,-11.606l-13.758,6.57l-28.225,7.765l-2.655,62.235l-2.991,-0l-0.954,-60l-28.79,-6.898l-16.385,-5.293l46.065,7.275l-0.508,-15.084Z" style="fill:#774e27;fill-opacity:0.69;"/><path d="M469.777,55.534c0.287,1.478 -0.117,3.036 -0.092,4.61c0.187,12.216 -22.293,19.696 -32.587,19.854c-10.295,0.158 23.238,-8.765 21.205,-16.714c-0.467,-1.824 -2.782,-5.927 -3.219,-7.671l-9.795,0.24c-7.262,0.09 -13.192,-3.732 -13.233,-8.528l-0.148,-17.382c-0.041,-4.797 5.822,-8.764 13.084,-8.854l29.719,-0.368c7.262,-0.089 13.192,3.732 13.233,8.529l0.148,17.381c0.041,4.797 -5.822,8.764 -13.084,8.854l-5.231,0.049Z" style="fill:#dedede;stroke:#000;stroke-width:4.17px;"/><rect x="445" y="105" width="50" height="90" style="fill:#666;fill-opacity:0.51;stroke:#000;stroke-width:4.17px;"/><path d="M375.436,166.861c4.303,-7.035 12.908,-7.035 17.21,-3.518c4.302,3.518 4.302,10.553 -0,17.587c-3.012,5.277 -10.756,10.553 -17.21,14.07c-6.453,-3.517 -14.198,-8.793 -17.209,-14.07c-4.303,-7.034 -4.303,-14.069 -0,-17.587c4.302,-3.517 12.907,-3.517 17.209,3.518Z" style="fill:#9e0000;stroke:#000;stroke-width:4.17px;"/><path d="M400,22.29c3.776,-6.927 11.328,-6.927 15.104,-3.464c3.777,3.464 3.777,10.392 0,17.319c-2.643,5.196 -9.44,10.391 -15.104,13.855c-5.664,-3.464 -12.461,-8.659 -15.104,-13.855c-3.777,-6.927 -3.777,-13.855 -0,-17.319c3.776,-3.463 11.328,-3.463 15.104,3.464Z" style="fill:#5d5d5d;stroke:#000;stroke-width:4.17px;"/><path d="M375.436,172.816c3.118,-4.843 9.353,-4.843 12.471,-2.421c3.118,2.421 3.118,7.264 0,12.108c-2.182,3.632 -7.794,7.264 -12.471,9.686c-4.676,-2.422 -10.288,-6.054 -12.47,-9.686c-3.118,-4.844 -3.118,-9.687 -0,-12.108c3.117,-2.422 9.353,-2.422 12.47,2.421Z" style="fill:#4d0808;fill-opacity:0.57;"/><ellipse cx="300.798" cy="215" rx="6.331" ry="5"/><rect x="282.569" y="210" width="24.56" height="2.422"/><path d="M220.95,63.206l-15.458,-19.085l-1.882,1.525l15.458,19.085l1.882,-1.525Z"/><path d="M204.968,64.366l16.425,-18.26l-1.801,-1.62l-16.425,18.26l1.801,1.62Z"/><path d="M233.576,64.001l16.424,-18.26l-1.801,-1.62l-16.424,18.26l1.801,1.62Z"/><path d="M251.988,61.141l-18.635,-15.997l-1.578,1.838l18.635,15.997l1.578,-1.838Z"/><path d="M216.793,83.429l25.088,6.571l-1.826,-11.024l-23.207,-0.27l-0.055,4.723Z"/><ellipse cx="328.899" cy="215" rx="6.331" ry="5"/><rect x="322.569" y="210" width="24.56" height="2.422"/><path d="M302.134,230l24.56,0l1.771,4.345l-27.667,-0l1.336,-4.345Z"/><path d="M262.924,421.814c0,0 -16.915,-3.421 -36.809,-1.599c-19.894,1.822 -35.283,8.2 -35.283,8.2c0,0 15.161,-10.687 35.055,-12.509c19.894,-1.822 37.037,5.908 37.037,5.908Z" style="fill:#dedede;fill-opacity:0.88;"/><path d="M393.869,176.138c-0,0 -2.3,-5.984 -6.884,-8.205c-4.583,-2.221 -9.727,0.157 -9.727,0.157c0,-0 6.483,-5.972 11.067,-3.751c4.584,2.221 5.544,11.799 5.544,11.799Z" style="fill:#dedede;fill-opacity:0.88;"/><path d="M364.272,374.554c-0,-0 -17.66,-14.121 -42.094,-23.311c-24.435,-9.189 -46.45,-9.989 -46.45,-9.989c0,-0 24.449,-4.802 48.884,4.388c24.434,9.189 39.66,28.912 39.66,28.912Z" style="fill:#dedede;fill-opacity:0.88;"/></svg>