<?xml version="1.0" encoding="UTF-8" standalone="no"?><!DOCTYPE svg PUBLIC "-//W3C//DTD SVG 1.1//EN" "http://www.w3.org/Graphics/SVG/1.1/DTD/svg11.dtd"><svg width="100%" height="100%" viewBox="0 0 128 128" version="1.1" xmlns="http://www.w3.org/2000/svg" xmlns:xlink="http://www.w3.org/1999/xlink" xml:space="preserve" xmlns:serif="http://www.serif.com/" style="fill-rule:evenodd;clip-rule:evenodd;stroke-linecap:round;stroke-linejoin:round;stroke-miterlimit:1.5;"><rect id="Frame7" x="0" y="0" width="128" height="128" style="fill:none;"/><g id="Frame71" serif:id="Frame7"><path d="M60,3c20.145,0 37,16.303 37,37c0,20.697 -18.855,72 -39,72c-20.145,0 -35,-51.303 -35,-72c0,-20.697 16.855,-37 37,-37Z" style="fill:#ebebeb;stroke:#000;stroke-width:4.17px;"/><path d="M55,58l2,6l-4,0l2,-6Z" style="stroke:#000;stroke-width:4.17px;"/><path d="M65,58l2,6l-4,0l2,-6Z" style="stroke:#000;stroke-width:4.17px;"/><path d="M86.776,79.535l-52.765,-4.986l3.285,18.391l43.71,5.135l5.77,-18.54Z" style="stroke:#000;stroke-width:4.17px;"/><g><g><path d="M42.772,75.494l-4.392,-0.335l0.086,4.336l3.646,0.278l0.66,-4.279Z" style="fill:#fff;"/><path d="M47.165,75.829l-4.393,-0.335l0.086,4.336l3.647,0.278l0.66,-4.279Z" style="fill:#fff;"/><path d="M51.558,76.164l-4.393,-0.335l0.086,4.336l3.647,0.278l0.66,-4.279Z" style="fill:#fff;"/><path d="M55.95,76.499l-4.392,-0.335l0.086,4.336l3.646,0.278l0.66,-4.279Z" style="fill:#fff;"/><path d="M60.343,76.834l-4.393,-0.335l0.086,4.336l3.647,0.278l0.66,-4.279Z" style="fill:#fff;"/><path d="M64.967,77.186l-4.393,-0.335l0.086,4.337l3.647,0.278l0.66,-4.28Z" style="fill:#fff;"/><path d="M69.591,77.539l-4.393,-0.335l0.086,4.336l3.647,0.279l0.66,-4.28Z" style="fill:#fff;"/><path d="M74.099,77.883l-4.393,-0.335l0.086,4.336l3.647,0.278l0.66,-4.279Z" style="fill:#fff;"/><path d="M78.839,78.244l-4.393,-0.335l0.086,4.337l3.647,0.278l0.66,-4.28Z" style="fill:#fff;"/><path d="M42.772,75.494l-4.392,-0.335l0.086,4.336l3.646,0.278l0.66,-4.279Z" style="fill:#fff;"/><path d="M83,78.562l-4.393,-0.335l0.086,4.336l3.647,0.278l0.66,-4.279Z" style="fill:#fff;"/></g><g id="av"><path d="M40.793,82.277l-4.606,-1.161l-1.187,6.547l3.824,0.963l1.969,-6.349Z" style="fill:#fff;"/><path d="M45.884,83.559l-4.606,-1.16l-1.187,6.547l3.824,0.963l1.969,-6.35Z" style="fill:#fff;"/><path d="M50.975,84.841l-4.606,-1.16l-1.187,6.547l3.824,0.963l1.969,-6.35Z" style="fill:#fff;"/><path d="M56.066,86.123l-4.606,-1.16l-1.187,6.547l3.824,0.963l1.969,-6.35Z" style="fill:#fff;"/><path d="M61.278,87.436l-4.606,-1.16l-1.187,6.546l3.824,0.964l1.969,-6.35Z" style="fill:#fff;"/><path d="M66.49,88.748l-4.606,-1.16l-1.186,6.547l3.824,0.963l1.968,-6.35Z" style="fill:#fff;"/><path d="M71.945,90.122l-4.606,-1.16l-1.187,6.547l3.824,0.963l1.969,-6.35Z" style="fill:#fff;"/><path d="M77.4,91.496l-4.606,-1.16l-1.187,6.547l3.824,0.963l1.969,-6.35Z" style="fill:#fff;"/><path d="M81.521,92.534l-4.606,-1.16l-1.187,6.546l3.824,0.964l1.969,-6.35Z" style="fill:#fff;"/></g></g><ellipse cx="41.5" cy="42.5" rx="10.5" ry="11.5" style="stroke:#000;stroke-width:4.17px;"/><circle cx="77.5" cy="43.5" r="10.5" style="stroke:#000;stroke-width:4.17px;"/></g></svg>