<?xml version="1.0" encoding="UTF-8" standalone="no"?><!DOCTYPE svg PUBLIC "-//W3C//DTD SVG 1.1//EN" "http://www.w3.org/Graphics/SVG/1.1/DTD/svg11.dtd"><svg width="100%" height="100%" viewBox="0 0 128 128" version="1.1" xmlns="http://www.w3.org/2000/svg" xmlns:xlink="http://www.w3.org/1999/xlink" xml:space="preserve" xmlns:serif="http://www.serif.com/" style="fill-rule:evenodd;clip-rule:evenodd;stroke-linecap:round;stroke-linejoin:round;stroke-miterlimit:1.5;"><rect id="Frame6" x="0" y="0" width="128" height="128" style="fill:none;"/><g id="Frame61" serif:id="Frame6"><path d="M60,3c20.145,0 37,16.303 37,37c0,20.697 -18.855,69 -39,69c-20.145,0 -35,-48.303 -35,-69c0,-20.697 16.855,-37 37,-37Z" style="fill:#ebebeb;stroke:#000;stroke-width:4.17px;"/><path d="M55,58l2,6l-4,0l2,-6Z" style="stroke:#000;stroke-width:4.17px;"/><path d="M65,58l2,6l-4,0l2,-6Z" style="stroke:#000;stroke-width:4.17px;"/><path d="M86,77l-53,0l5,16.5l44,0l4,-16.5Z" style="stroke:#000;stroke-width:4.17px;"/><g><g><path d="M41.655,77.923l-4.405,0l0.416,4.317l3.657,0l0.332,-4.317Z" style="fill:#fff;"/><path d="M46.061,77.923l-4.406,0l0.416,4.317l3.657,0l0.333,-4.317Z" style="fill:#fff;"/><path d="M50.466,77.923l-4.405,0l0.415,4.317l3.658,0l0.332,-4.317Z" style="fill:#fff;"/><path d="M54.872,77.923l-4.406,0l0.416,4.317l3.657,0l0.333,-4.317Z" style="fill:#fff;"/><path d="M59.277,77.923l-4.405,0l0.415,4.317l3.658,0l0.332,-4.317Z" style="fill:#fff;"/><path d="M63.915,77.923l-4.406,0l0.416,4.317l3.657,0l0.333,-4.317Z" style="fill:#fff;"/><path d="M68.552,77.923l-4.406,0l0.416,4.317l3.657,0l0.333,-4.317Z" style="fill:#fff;"/><path d="M73.073,77.923l-4.405,0l0.415,4.317l3.658,0l0.332,-4.317Z" style="fill:#fff;"/><path d="M77.826,77.923l-4.405,0l0.416,4.317l3.657,0l0.332,-4.317Z" style="fill:#fff;"/><path d="M41.655,77.923l-4.405,0l0.416,4.317l3.657,0l0.332,-4.317Z" style="fill:#fff;"/><path d="M82,77.923l-4.405,0l0.415,4.317l3.658,0l0.332,-4.317Z" style="fill:#fff;"/></g><g><path d="M42,85.861l-4.75,0l0.448,6.639l3.944,-0l0.358,-6.639Z" style="fill:#fff;"/><path d="M47.25,85.861l-4.75,0l0.448,6.639l3.944,-0l0.358,-6.639Z" style="fill:#fff;"/><path d="M52.5,85.861l-4.75,0l0.448,6.639l3.944,-0l0.358,-6.639Z" style="fill:#fff;"/><path d="M57.75,85.861l-4.75,0l0.448,6.639l3.944,-0l0.358,-6.639Z" style="fill:#fff;"/><path d="M63.125,85.861l-4.75,0l0.448,6.639l3.944,-0l0.358,-6.639Z" style="fill:#fff;"/><path d="M68.5,85.861l-4.75,0l0.448,6.639l3.944,-0l0.358,-6.639Z" style="fill:#fff;"/><path d="M74.125,85.861l-4.75,0l0.448,6.639l3.944,-0l0.358,-6.639Z" style="fill:#fff;"/><path d="M79.75,85.861l-4.75,0l0.448,6.639l3.944,-0l0.358,-6.639Z" style="fill:#fff;"/><path d="M84,85.861l-4.75,0l0.448,6.639l3.944,-0l0.358,-6.639Z" style="fill:#fff;"/></g></g><ellipse cx="41.5" cy="42.5" rx="10.5" ry="11.5" style="stroke:#000;stroke-width:4.17px;"/><circle cx="77.5" cy="43.5" r="10.5" style="stroke:#000;stroke-width:4.17px;"/></g></svg>