<?xml version="1.0" encoding="UTF-8" standalone="no"?><!DOCTYPE svg PUBLIC "-//W3C//DTD SVG 1.1//EN" "http://www.w3.org/Graphics/SVG/1.1/DTD/svg11.dtd"><svg width="100%" height="100%" viewBox="0 0 128 128" version="1.1" xmlns="http://www.w3.org/2000/svg" xmlns:xlink="http://www.w3.org/1999/xlink" xml:space="preserve" xmlns:serif="http://www.serif.com/" style="fill-rule:evenodd;clip-rule:evenodd;stroke-linecap:round;stroke-linejoin:round;stroke-miterlimit:1.5;"><rect id="Frame8" x="0" y="0" width="128" height="128" style="fill:none;"/><g id="Frame81" serif:id="Frame8"><path d="M60,3c20.145,0 35.311,16.372 37,37c1.649,20.147 -18.855,70 -39,70c-20.145,0 -36.741,-49.303 -35,-70c1.735,-20.624 16.855,-37 37,-37Z" style="fill:#ebebeb;stroke:#000;stroke-width:4.17px;"/><path d="M55,58l2,6l-4,0l2,-6Z" style="stroke:#000;stroke-width:4.17px;"/><path d="M65,58l2,6l-4,0l2,-6Z" style="stroke:#000;stroke-width:4.17px;"/><path d="M84,84l-41,-2.633l2.421,16.989l32.215,1.644l6.364,-16Z" style="stroke:#000;stroke-width:4.17px;"/><g><g><path d="M49.514,81.688l-3.323,-0.321l-0.235,5.708l2.759,0.266l0.799,-5.653Z" style="fill:#fff;"/><path d="M52.838,82.009l-3.324,-0.321l-0.234,5.708l2.759,0.266l0.799,-5.653Z" style="fill:#fff;"/><path d="M56.161,82.33l-3.323,-0.321l-0.235,5.708l2.759,0.266l0.799,-5.653Z" style="fill:#fff;"/><path d="M59.485,82.651l-3.324,-0.321l-0.234,5.708l2.759,0.266l0.799,-5.653Z" style="fill:#fff;"/><path d="M62.808,82.972l-3.323,-0.321l-0.235,5.708l2.759,0.266l0.799,-5.653Z" style="fill:#fff;"/><path d="M66.307,83.309l-3.324,-0.32l-0.234,5.707l2.759,0.267l0.799,-5.654Z" style="fill:#fff;"/><path d="M69.805,83.647l-3.323,-0.321l-0.235,5.708l2.759,0.267l0.799,-5.654Z" style="fill:#fff;"/><path d="M73.216,83.977l-3.323,-0.321l-0.235,5.708l2.759,0.266l0.799,-5.653Z" style="fill:#fff;"/><path d="M76.802,84.323l-3.324,-0.321l-0.234,5.708l2.759,0.266l0.799,-5.653Z" style="fill:#fff;"/><path d="M49.514,81.688l-3.323,-0.321l-0.235,5.708l2.759,0.266l0.799,-5.653Z" style="fill:#fff;"/><path d="M79.95,84.627l-3.323,-0.321l-0.235,5.708l2.759,0.266l0.799,-5.653Z" style="fill:#fff;"/></g><g id="av"><path d="M47.814,89.671l-3.588,-0.29l-0.226,7.016l2.979,0.241l0.835,-6.967Z" style="fill:#fff;"/><path d="M51.78,89.991l-3.588,-0.289l-0.226,7.016l2.979,0.24l0.835,-6.967Z" style="fill:#fff;"/><path d="M55.747,90.312l-3.589,-0.29l-0.226,7.016l2.979,0.241l0.836,-6.967Z" style="fill:#fff;"/><path d="M59.713,90.632l-3.589,-0.29l-0.226,7.016l2.979,0.241l0.836,-6.967Z" style="fill:#fff;"/><path d="M63.773,90.96l-3.588,-0.29l-0.226,7.016l2.979,0.241l0.835,-6.967Z" style="fill:#fff;"/><path d="M67.834,91.288l-3.589,-0.29l-0.226,7.016l2.979,0.241l0.836,-6.967Z" style="fill:#fff;"/><path d="M72.083,91.631l-3.588,-0.29l-0.226,7.017l2.979,0.24l0.835,-6.967Z" style="fill:#fff;"/><path d="M76.333,91.974l-3.589,-0.289l-0.226,7.016l2.979,0.24l0.836,-6.967Z" style="fill:#fff;"/><path d="M79.543,92.234l-3.588,-0.29l-0.226,7.016l2.979,0.241l0.835,-6.967Z" style="fill:#fff;"/></g></g><ellipse cx="41.5" cy="42.5" rx="10.5" ry="11.5" style="stroke:#000;stroke-width:4.17px;"/><circle cx="77.5" cy="43.5" r="10.5" style="stroke:#000;stroke-width:4.17px;"/></g></svg>