<?xml version="1.0" encoding="UTF-8" standalone="no"?><!DOCTYPE svg PUBLIC "-//W3C//DTD SVG 1.1//EN" "http://www.w3.org/Graphics/SVG/1.1/DTD/svg11.dtd"><svg width="100%" height="100%" viewBox="0 0 128 128" version="1.1" xmlns="http://www.w3.org/2000/svg" xmlns:xlink="http://www.w3.org/1999/xlink" xml:space="preserve" xmlns:serif="http://www.serif.com/" style="fill-rule:evenodd;clip-rule:evenodd;stroke-linecap:round;stroke-linejoin:round;stroke-miterlimit:1.5;"><rect id="Frame5" x="0" y="0" width="128" height="128" style="fill:none;"/><g id="Frame51" serif:id="Frame5"><path d="M35,2c0,0 -9.5,25.055 -9.5,41.75c-0,16.695 -4.705,30.25 -10.5,30.25c-5.795,0 -10.5,-13.555 -10.5,-30.25c0,-16.695 30.5,-41.75 30.5,-41.75Z" style="fill:#ff4d00;stroke:#000;stroke-width:0.42px;"/><path d="M31,8c0,0 -8.16,24.061 -8.16,39.972c-0,15.911 -3.714,28.829 -8.289,28.829c-4.574,-0 -8.288,-12.918 -8.288,-28.829c-0,-15.911 24.737,-39.972 24.737,-39.972Z" style="fill:#f5ff00;stroke:#000;stroke-width:0.42px;"/><path d="M87,2c0,0 4.416,4.529 9.859,11c8.744,10.396 20.141,25.805 20.141,35.5c0,15.73 -2.99,28.5 -9.395,28.5c-6.405,0 -11.605,-12.77 -11.605,-28.5c0,-15.73 -9,-46.5 -9,-46.5Z" style="fill:#ff4d00;stroke:#000;stroke-width:0.42px;"/><path d="M91,8c0,0 23.577,28.874 23.577,43.5c-0,14.626 -3.714,26.5 -8.289,26.5c-4.574,0 -8.288,-11.874 -8.288,-26.5c0,-14.36 -7,-41.135 -7,-43.5Z" style="fill:#f5ff00;stroke:#000;stroke-width:0.42px;"/><path d="M91.347,7.599c2.274,6.17 15.153,17.15 15.153,25.774c-0,8.625 -2.705,15.627 -11.588,15.627c-8.882,0 -15.912,-8.896 -15.912,-17.521c0,-8.625 9.456,-31.722 12.347,-23.88Z" style="fill:#fe0;fill-opacity:0.54;"/><path d="M84,15c-0.682,4.217 10.151,15.159 10.151,23.282c0,8.123 -1.82,14.718 -7.795,14.718c-5.976,0 -10.512,-8.383 -10.705,-16.502c-0.19,-8.015 9.69,-29.797 8.349,-21.498Z" style="fill:#0b0a03;fill-opacity:0.54;"/><path d="M37.648,13c1.143,4.116 -10.151,15.159 -10.151,23.282c0,8.123 1.82,14.718 7.796,14.718c5.975,0 10.512,-8.383 10.704,-16.502c0.191,-8.015 -11.743,-33.727 -8.349,-21.498Z" style="fill:#0b0a03;fill-opacity:0.54;"/><path d="M28,8.102c-2.502,6.293 -17,10.82 -17,19.617c0,8.797 2.977,15.939 12.75,15.939c9.773,-0 21.25,-9.175 21.25,-17.972c0,-8.796 -13.82,-25.582 -17,-17.584Z" style="fill:#fe0;fill-opacity:0.54;"/><g><path d="M75.626,36.5c-2.372,5.552 -3.626,11.921 -3.626,18.414c0,19.593 11.202,35.5 25,35.5c13.798,0 25,-15.907 25,-35.5c-0,-6.493 -1.254,-12.862 -3.626,-18.414l-42.748,0Z"/><path d="M76.626,38.5c-2.372,5.552 -3.626,11.921 -3.626,18.414c0,19.593 11.202,35.5 25,35.5c13.798,0 25,-15.907 25,-35.5c-0,-6.493 -1.254,-12.862 -3.626,-18.414l-42.748,0Z" style="fill:#4c5962;"/><path d="M4.626,36c-2.372,5.552 -3.626,11.921 -3.626,18.414c0,19.593 11.202,35.5 25,35.5c13.798,0 25,-15.907 25,-35.5c0,-6.493 -1.254,-12.862 -3.626,-18.414l-42.748,0Z"/><path d="M4.626,36c-2.372,5.552 -3.626,11.921 -3.626,18.414c0,19.593 11.202,35.5 25,35.5c13.798,0 25,-15.907 25,-35.5c0,-6.493 -1.254,-12.862 -3.626,-18.414l-42.748,0Z"/><path d="M4.626,38c-2.372,5.552 -3.626,11.921 -3.626,18.414c0,19.593 11.202,35.5 25,35.5c13.798,0 25,-15.907 25,-35.5c-0,-6.493 -1.254,-12.862 -3.626,-18.414l-42.748,0Z" style="fill:#4c5962;"/><ellipse cx="61" cy="63.5" rx="52" ry="35.5" style="fill:#004573;stroke:#000;stroke-width:4.17px;"/><ellipse cx="61" cy="67" rx="30" ry="30.5" style="fill:#acd7f4;stroke:#000;stroke-width:4.17px;"/><ellipse cx="61.5" cy="82" rx="4.5" ry="5" style="fill:#f5ff00;stroke:#000;stroke-width:4.17px;"/><path d="M83.052,67.812c6.968,-5.879 10.948,-14.263 10.948,-23.062c0,-17.109 -14.787,-31 -33,-31c-18.213,-0 -33,13.891 -33,31c0,8.799 3.98,17.183 10.948,23.062l44.104,0Z" style="fill:#5a99c4;stroke:#000;stroke-width:4.17px;"/><path d="M62,12c19.317,0 24.7,8.949 28,18c3.025,8.297 -9.683,-13 -29,-13c-19.317,-0 -31,21.831 -31,13c0,-8.831 12.683,-18 32,-18Z" style="fill:#faf600;fill-opacity:0.4;"/><path d="M71.872,65.672c5.173,-4.714 8.128,-11.436 8.128,-18.49c0,-13.717 -10.978,-24.854 -24.5,-24.854c-13.522,0 -24.5,11.137 -24.5,24.854c0,7.054 2.955,13.776 8.128,18.49l32.744,-0Z" style="fill:#2a6b95;fill-opacity:0.53;"/><path d="M67,34c5.519,0 5.874,17.026 6,25.802c0.094,6.525 0.397,6.323 -6,6.198c-5.955,-0.116 -4.547,0.041 -4.5,-4.56c0.089,-8.777 -1.019,-27.44 4.5,-27.44Z" style="fill:#002741;"/><ellipse cx="67.5" cy="59.406" rx="3.5" ry="8.406"/><ellipse cx="67.5" cy="47" rx="6.5" ry="8.5"/><path d="M64.063,56.812c1.332,0 0.345,2.518 0.345,5.756c-0,3.238 1.332,5.244 -0,5.244c-1.332,0 -1.38,-2.006 -1.38,-5.244c0,-3.238 -0.297,-5.756 1.035,-5.756Z"/><path d="M70.711,56.869c0.658,-0.099 0.546,2.464 1.029,5.666c0.483,3.202 1.441,5.086 0.782,5.185c-0.659,0.1 -0.981,-1.881 -1.464,-5.082c-0.483,-3.202 -1.006,-5.67 -0.347,-5.769Z"/><path d="M77.955,58.811c2.891,0.199 5.673,-0.387 8.105,-1.706c8.245,-4.473 10.573,-16.154 5.195,-26.069c-5.379,-9.914 -16.44,-14.332 -24.686,-9.858c-2.432,1.319 -4.44,3.332 -5.849,5.864l17.235,31.769Z" style="fill:#d4d5d6;fill-opacity:0.54;"/></g></g></svg>